<svg xmlns="http://www.w3.org/2000/svg" xmlns:xlink="http://www.w3.org/1999/xlink" width="350" zoomAndPan="magnify" viewBox="0 0 262.5 262.500001" height="350" preserveAspectRatio="xMidYMid meet" version="1.0"><defs><clipPath id="6a5eb06406"><path d="M 46 59 L 121 59 L 121 123 L 46 123 Z M 46 59 " clip-rule="nonzero"/></clipPath><clipPath id="a1db899a69"><path d="M 54.914062 123.074219 L 45.402344 111.011719 L 112.035156 58.476562 L 121.542969 70.539062 Z M 54.914062 123.074219 " clip-rule="nonzero"/></clipPath><clipPath id="b552fc345c"><path d="M 53.523438 121.308594 L 46.792969 112.773438 C 46.023438 111.800781 46.191406 110.386719 47.164062 109.621094 L 110.234375 59.894531 C 111.210938 59.125 112.621094 59.292969 113.390625 60.265625 L 120.121094 68.804688 C 120.886719 69.777344 120.722656 71.1875 119.746094 71.957031 L 56.675781 121.683594 C 55.703125 122.453125 54.289062 122.285156 53.523438 121.308594 Z M 53.523438 121.308594 " clip-rule="nonzero"/></clipPath><clipPath id="137e8ccabb"><path d="M 46 59 L 121 59 L 121 123 L 46 123 Z M 46 59 " clip-rule="nonzero"/></clipPath><clipPath id="be71880a41"><path d="M 54.914062 123.074219 L 45.179688 110.730469 L 111.605469 58.355469 L 121.339844 70.703125 Z M 54.914062 123.074219 " clip-rule="nonzero"/></clipPath><clipPath id="fcfca4afdf"><path d="M 54.917969 123.070312 L 44.050781 109.285156 L 110.671875 56.761719 L 121.539062 70.542969 Z M 54.917969 123.070312 " clip-rule="nonzero"/></clipPath><clipPath id="ec8ac203ce"><path d="M 53.53125 121.304688 L 46.800781 112.773438 C 46.035156 111.796875 46.199219 110.386719 47.175781 109.617188 L 110.226562 59.90625 C 111.199219 59.136719 112.613281 59.304688 113.378906 60.28125 L 120.109375 68.8125 C 120.875 69.785156 120.707031 71.199219 119.734375 71.964844 L 56.683594 121.679688 C 55.707031 122.445312 54.296875 122.277344 53.53125 121.304688 Z M 53.53125 121.304688 " clip-rule="nonzero"/></clipPath><clipPath id="a118ddc9af"><path d="M 136 96 L 177 96 L 177 137 L 136 137 Z M 136 96 " clip-rule="nonzero"/></clipPath><clipPath id="28222287de"><path d="M 173.980469 126.753906 L 174.117188 126.515625 C 177.726562 120.203125 177.699219 112.445312 174.050781 106.15625 C 170.398438 99.867188 163.679688 96 156.40625 96 C 149.136719 96 142.414062 99.867188 138.765625 106.15625 C 135.117188 112.445312 135.089844 120.203125 138.699219 126.515625 L 138.832031 126.753906 C 142.4375 133.058594 149.144531 136.953125 156.40625 136.953125 C 163.671875 136.953125 170.378906 133.058594 173.980469 126.753906 Z M 173.980469 126.753906 " clip-rule="nonzero"/></clipPath><clipPath id="50f42768cd"><path d="M 145.585938 93.351562 L 167.867188 93.351562 L 167.867188 97.335938 L 145.585938 97.335938 Z M 145.585938 93.351562 " clip-rule="nonzero"/></clipPath><clipPath id="1d2262e912"><path d="M 147.578125 93.351562 L 165.875 93.351562 C 166.976562 93.351562 167.867188 94.242188 167.867188 95.34375 C 167.867188 96.441406 166.976562 97.335938 165.875 97.335938 L 147.578125 97.335938 C 146.480469 97.335938 145.585938 96.441406 145.585938 95.34375 C 145.585938 94.242188 146.480469 93.351562 147.578125 93.351562 Z M 147.578125 93.351562 " clip-rule="nonzero"/></clipPath><clipPath id="6447d8d8b6"><path d="M 147.46875 89.324219 L 165.355469 89.324219 L 165.355469 95.34375 L 147.46875 95.34375 Z M 147.46875 89.324219 " clip-rule="nonzero"/></clipPath><clipPath id="2a73fd659a"><path d="M 150.476562 89.324219 L 162.34375 89.324219 C 164.003906 89.324219 165.351562 90.671875 165.351562 92.335938 C 165.351562 93.996094 164.003906 95.34375 162.34375 95.34375 L 150.476562 95.34375 C 148.816406 95.34375 147.46875 93.996094 147.46875 92.335938 C 147.46875 90.671875 148.816406 89.324219 150.476562 89.324219 Z M 150.476562 89.324219 " clip-rule="nonzero"/></clipPath><clipPath id="1f2eb1ad3d"><path d="M 3.15625 41.824219 L 202.917969 41.824219 L 202.917969 75.183594 L 3.15625 75.183594 Z M 3.15625 41.824219 " clip-rule="nonzero"/></clipPath><clipPath id="9c7c21f1b8"><path d="M 3.15625 69.941406 L 3.15625 47.066406 C 3.15625 45.675781 3.710938 44.34375 4.691406 43.359375 C 5.675781 42.375 7.007812 41.824219 8.398438 41.824219 L 197.554688 41.824219 C 198.945312 41.824219 200.277344 42.375 201.261719 43.359375 C 202.242188 44.34375 202.796875 45.675781 202.796875 47.066406 L 202.796875 69.941406 C 202.796875 71.332031 202.242188 72.664062 201.261719 73.648438 C 200.277344 74.632812 198.945312 75.183594 197.554688 75.183594 L 8.398438 75.183594 C 7.007812 75.183594 5.675781 74.632812 4.691406 73.648438 C 3.710938 72.664062 3.15625 71.332031 3.15625 69.941406 Z M 3.15625 69.941406 " clip-rule="nonzero"/></clipPath><clipPath id="19285fb200"><path d="M 3.191406 41.496094 L 203 41.496094 L 203 75.183594 L 3.191406 75.183594 Z M 3.191406 41.496094 " clip-rule="nonzero"/></clipPath><clipPath id="3dd39ba057"><path d="M 3.191406 69.945312 L 3.191406 47.074219 C 3.191406 45.683594 3.742188 44.351562 4.726562 43.371094 C 5.707031 42.386719 7.039062 41.835938 8.429688 41.835938 L 197.519531 41.835938 C 198.910156 41.835938 200.242188 42.386719 201.226562 43.371094 C 202.207031 44.351562 202.757812 45.683594 202.757812 47.074219 L 202.757812 69.945312 C 202.757812 71.335938 202.207031 72.667969 201.226562 73.648438 C 200.242188 74.632812 198.910156 75.183594 197.519531 75.183594 L 8.429688 75.183594 C 7.039062 75.183594 5.707031 74.632812 4.726562 73.648438 C 3.742188 72.667969 3.191406 71.335938 3.191406 69.945312 Z M 3.191406 69.945312 " clip-rule="nonzero"/></clipPath><clipPath id="3142b96d58"><path d="M 0.363281 238.253906 L 262 238.253906 L 262 250.980469 L 0.363281 250.980469 Z M 0.363281 238.253906 " clip-rule="nonzero"/></clipPath><clipPath id="3d7ef555ca"><path d="M 34 241.578125 L 262 241.578125 L 262 252.804688 L 34 252.804688 Z M 34 241.578125 " clip-rule="nonzero"/></clipPath><clipPath id="ee2932202b"><path d="M 34.550781 4.585938 L 67.90625 4.585938 L 67.90625 241.613281 L 34.550781 241.613281 Z M 34.550781 4.585938 " clip-rule="nonzero"/></clipPath><clipPath id="71ff5e80f3"><path d="M 39.789062 4.585938 L 62.667969 4.585938 C 64.058594 4.585938 65.390625 5.136719 66.371094 6.121094 C 67.355469 7.105469 67.90625 8.4375 67.90625 9.828125 L 67.90625 236.335938 C 67.90625 237.726562 67.355469 239.058594 66.371094 240.042969 C 65.390625 241.023438 64.058594 241.578125 62.667969 241.578125 L 39.789062 241.578125 C 38.398438 241.578125 37.066406 241.023438 36.085938 240.042969 C 35.101562 239.058594 34.550781 237.726562 34.550781 236.335938 L 34.550781 9.828125 C 34.550781 8.4375 35.101562 7.105469 36.085938 6.121094 C 37.066406 5.136719 38.398438 4.585938 39.789062 4.585938 Z M 39.789062 4.585938 " clip-rule="nonzero"/></clipPath><clipPath id="c27f90bc8b"><path d="M 34.550781 4.625 L 68 4.625 L 68 241.5625 L 34.550781 241.5625 Z M 34.550781 4.625 " clip-rule="nonzero"/></clipPath><clipPath id="c96b02fcc2"><path d="M 39.789062 4.625 L 62.65625 4.625 C 64.046875 4.625 65.378906 5.175781 66.363281 6.15625 C 67.34375 7.140625 67.894531 8.472656 67.894531 9.863281 L 67.894531 236.292969 C 67.894531 237.683594 67.34375 239.015625 66.363281 239.996094 C 65.378906 240.980469 64.046875 241.53125 62.65625 241.53125 L 39.789062 241.53125 C 38.398438 241.53125 37.066406 240.980469 36.082031 239.996094 C 35.101562 239.015625 34.550781 237.683594 34.550781 236.292969 L 34.550781 9.863281 C 34.550781 8.472656 35.101562 7.140625 36.082031 6.15625 C 37.066406 5.175781 38.398438 4.625 39.789062 4.625 Z M 39.789062 4.625 " clip-rule="nonzero"/></clipPath><clipPath id="c7b70c6ec7"><path d="M 21.367188 215.425781 L 83.460938 215.425781 L 83.460938 241.570312 L 21.367188 241.570312 Z M 21.367188 215.425781 " clip-rule="nonzero"/></clipPath><clipPath id="580c2c9130"><path d="M 21.367188 236.328125 L 21.367188 220.664062 C 21.367188 219.273438 21.917969 217.941406 22.898438 216.960938 C 23.882812 215.976562 25.214844 215.425781 26.605469 215.425781 L 78.21875 215.425781 C 79.609375 215.425781 80.941406 215.976562 81.925781 216.960938 C 82.90625 217.941406 83.460938 219.273438 83.460938 220.664062 L 83.460938 236.328125 C 83.460938 237.71875 82.90625 239.050781 81.925781 240.035156 C 80.941406 241.019531 79.609375 241.570312 78.21875 241.570312 L 26.605469 241.570312 C 25.214844 241.570312 23.882812 241.019531 22.898438 240.035156 C 21.917969 239.050781 21.367188 237.71875 21.367188 236.328125 Z M 21.367188 236.328125 " clip-rule="nonzero"/></clipPath><clipPath id="c804c59522"><path d="M 21.367188 215.371094 L 83.496094 215.371094 L 83.496094 241.570312 L 21.367188 241.570312 Z M 21.367188 215.371094 " clip-rule="nonzero"/></clipPath><clipPath id="9a81f94b2f"><path d="M 21.367188 236.332031 L 21.367188 220.667969 C 21.367188 219.277344 21.917969 217.945312 22.898438 216.964844 C 23.882812 215.980469 25.214844 215.429688 26.605469 215.429688 L 78.210938 215.429688 C 79.601562 215.429688 80.933594 215.980469 81.914062 216.964844 C 82.898438 217.945312 83.449219 219.277344 83.449219 220.667969 L 83.449219 236.332031 C 83.449219 237.71875 82.898438 239.054688 81.914062 240.035156 C 80.933594 241.019531 79.601562 241.570312 78.210938 241.570312 L 26.605469 241.570312 C 25.214844 241.570312 23.882812 241.019531 22.898438 240.035156 C 21.917969 239.054688 21.367188 237.71875 21.367188 236.332031 Z M 21.367188 236.332031 " clip-rule="nonzero"/></clipPath><clipPath id="96f80f1657"><path d="M 56.1875 225.347656 L 66.667969 225.347656 L 66.667969 235.828125 L 56.1875 235.828125 Z M 56.1875 225.347656 " clip-rule="nonzero"/></clipPath><clipPath id="2188e469b7"><path d="M 52.410156 99 L 62 99 L 62 108.511719 L 52.410156 108.511719 Z M 52.410156 99 " clip-rule="nonzero"/></clipPath><clipPath id="80b4dbab0e"><path d="M 152 59 L 161.5 59 L 161.5 68 L 152 68 Z M 152 59 " clip-rule="nonzero"/></clipPath><clipPath id="e59f1ec83c"><path d="M 52.410156 49 L 62 49 L 62 58.457031 L 52.410156 58.457031 Z M 52.410156 49 " clip-rule="nonzero"/></clipPath><clipPath id="fd4ef81acf"><path d="M 18 182 L 39 182 L 39 238 L 18 238 Z M 18 182 " clip-rule="nonzero"/></clipPath><clipPath id="0c9b63dc95"><path d="M -6.488281 233.183594 L 20.960938 180.800781 L 58.757812 200.605469 L 31.304688 252.988281 Z M -6.488281 233.183594 " clip-rule="nonzero"/></clipPath><clipPath id="8f7ec9726a"><path d="M -6.488281 233.183594 L 20.960938 180.800781 L 58.757812 200.605469 L 31.304688 252.988281 Z M -6.488281 233.183594 " clip-rule="nonzero"/></clipPath><clipPath id="8dfd1d6f8a"><path d="M -6.488281 233.183594 L 20.960938 180.800781 L 58.757812 200.605469 L 31.304688 252.988281 Z M -6.488281 233.183594 " clip-rule="nonzero"/></clipPath><clipPath id="e093fd29b0"><path d="M 18 229 L 36 229 L 36 247 L 18 247 Z M 18 229 " clip-rule="nonzero"/></clipPath><clipPath id="07cc5354fa"><path d="M -6.488281 233.183594 L 20.960938 180.800781 L 58.757812 200.605469 L 31.304688 252.988281 Z M -6.488281 233.183594 " clip-rule="nonzero"/></clipPath><clipPath id="4e4ade0957"><path d="M -6.488281 233.183594 L 20.960938 180.800781 L 58.757812 200.605469 L 31.304688 252.988281 Z M -6.488281 233.183594 " clip-rule="nonzero"/></clipPath><clipPath id="d67309330d"><path d="M -6.488281 233.183594 L 20.960938 180.800781 L 58.757812 200.605469 L 31.304688 252.988281 Z M -6.488281 233.183594 " clip-rule="nonzero"/></clipPath><clipPath id="baddd30b92"><path d="M 48 179 L 55 179 L 55 208 L 48 208 Z M 48 179 " clip-rule="nonzero"/></clipPath><clipPath id="cc3bbf0923"><path d="M 71.355469 201.664062 L 45.488281 223.242188 L 26.308594 200.25 L 52.171875 178.671875 Z M 71.355469 201.664062 " clip-rule="nonzero"/></clipPath><clipPath id="006ff643d3"><path d="M 71.355469 201.664062 L 45.488281 223.242188 L 26.308594 200.25 L 52.171875 178.671875 Z M 71.355469 201.664062 " clip-rule="nonzero"/></clipPath><clipPath id="c58d974e4c"><path d="M 71.355469 201.664062 L 45.488281 223.242188 L 26.308594 200.25 L 52.171875 178.671875 Z M 71.355469 201.664062 " clip-rule="nonzero"/></clipPath><clipPath id="dc277cd35f"><path d="M 38 208 L 60 208 L 60 216 L 38 216 Z M 38 208 " clip-rule="nonzero"/></clipPath><clipPath id="ac657b6edd"><path d="M 71.355469 201.664062 L 45.488281 223.242188 L 26.308594 200.25 L 52.171875 178.671875 Z M 71.355469 201.664062 " clip-rule="nonzero"/></clipPath><clipPath id="5eb18641eb"><path d="M 71.355469 201.664062 L 45.488281 223.242188 L 26.308594 200.25 L 52.171875 178.671875 Z M 71.355469 201.664062 " clip-rule="nonzero"/></clipPath><clipPath id="272777472a"><path d="M 71.355469 201.664062 L 45.488281 223.242188 L 26.308594 200.25 L 52.171875 178.671875 Z M 71.355469 201.664062 " clip-rule="nonzero"/></clipPath><clipPath id="fc63f0144c"><path d="M 224 41.832031 L 231 41.832031 L 231 45 L 224 45 Z M 224 41.832031 " clip-rule="nonzero"/></clipPath><clipPath id="b165abe57e"><path d="M 218.320312 48 L 222 48 L 222 55 L 218.320312 55 Z M 218.320312 48 " clip-rule="nonzero"/></clipPath><clipPath id="c33f21f99c"><path d="M 233 41.832031 L 241 41.832031 L 241 45 L 233 45 Z M 233 41.832031 " clip-rule="nonzero"/></clipPath><clipPath id="78f623ebf3"><path d="M 243 48 L 246.015625 48 L 246.015625 55 L 243 55 Z M 243 48 " clip-rule="nonzero"/></clipPath><clipPath id="c4faa4103d"><path d="M 230 63 L 234 63 L 234 66.535156 L 230 66.535156 Z M 230 63 " clip-rule="nonzero"/></clipPath><clipPath id="613aba4ded"><path d="M 230 63 L 234 63 L 234 66.535156 L 230 66.535156 Z M 230 63 " clip-rule="nonzero"/></clipPath><clipPath id="59ce2d382c"><path d="M 224 73.503906 L 231 73.503906 L 231 77 L 224 77 Z M 224 73.503906 " clip-rule="nonzero"/></clipPath><clipPath id="b35408a77f"><path d="M 218.320312 79 L 222 79 L 222 86 L 218.320312 86 Z M 218.320312 79 " clip-rule="nonzero"/></clipPath><clipPath id="050fd15d20"><path d="M 233 73.503906 L 241 73.503906 L 241 77 L 233 77 Z M 233 73.503906 " clip-rule="nonzero"/></clipPath><clipPath id="9a7305b320"><path d="M 243 79 L 246.015625 79 L 246.015625 86 L 243 86 Z M 243 79 " clip-rule="nonzero"/></clipPath><clipPath id="17a8598b64"><path d="M 230 95 L 234 95 L 234 98.203125 L 230 98.203125 Z M 230 95 " clip-rule="nonzero"/></clipPath><clipPath id="a761e4cca6"><path d="M 230 95 L 234 95 L 234 98.203125 L 230 98.203125 Z M 230 95 " clip-rule="nonzero"/></clipPath><clipPath id="cd1799b44d"><path d="M 225 105.363281 L 232 105.363281 L 232 109 L 225 109 Z M 225 105.363281 " clip-rule="nonzero"/></clipPath><clipPath id="9ec40b3338"><path d="M 218.789062 111 L 222 111 L 222 118 L 218.789062 118 Z M 218.789062 111 " clip-rule="nonzero"/></clipPath><clipPath id="096de70d06"><path d="M 234 105.363281 L 241 105.363281 L 241 109 L 234 109 Z M 234 105.363281 " clip-rule="nonzero"/></clipPath><clipPath id="f33ba8af18"><path d="M 243 111 L 246.484375 111 L 246.484375 118 L 243 118 Z M 243 111 " clip-rule="nonzero"/></clipPath><clipPath id="360a1071b1"><path d="M 231 127 L 235 127 L 235 130.066406 L 231 130.066406 Z M 231 127 " clip-rule="nonzero"/></clipPath><clipPath id="c70c241468"><path d="M 231 127 L 235 127 L 235 130.066406 L 231 130.066406 Z M 231 127 " clip-rule="nonzero"/></clipPath><clipPath id="34847715bc"><path d="M 224 137.226562 L 231 137.226562 L 231 141 L 224 141 Z M 224 137.226562 " clip-rule="nonzero"/></clipPath><clipPath id="8edd56b8e9"><path d="M 218.320312 143 L 222 143 L 222 150 L 218.320312 150 Z M 218.320312 143 " clip-rule="nonzero"/></clipPath><clipPath id="83dcf1cd7e"><path d="M 233 137.226562 L 241 137.226562 L 241 141 L 233 141 Z M 233 137.226562 " clip-rule="nonzero"/></clipPath><clipPath id="ee7dd32f82"><path d="M 243 143 L 246.015625 143 L 246.015625 150 L 243 150 Z M 243 143 " clip-rule="nonzero"/></clipPath><clipPath id="62b45a4a39"><path d="M 230 158 L 234 158 L 234 161.929688 L 230 161.929688 Z M 230 158 " clip-rule="nonzero"/></clipPath><clipPath id="dc2cbbb079"><path d="M 230 158 L 234 158 L 234 161.929688 L 230 161.929688 Z M 230 158 " clip-rule="nonzero"/></clipPath><clipPath id="260b18578f"><path d="M 225 169.085938 L 233 169.085938 L 233 173 L 225 173 Z M 225 169.085938 " clip-rule="nonzero"/></clipPath><clipPath id="67a06b6710"><path d="M 219.726562 175 L 223 175 L 223 182 L 219.726562 182 Z M 219.726562 175 " clip-rule="nonzero"/></clipPath><clipPath id="30542aa155"><path d="M 235 169.085938 L 242 169.085938 L 242 173 L 235 173 Z M 235 169.085938 " clip-rule="nonzero"/></clipPath><clipPath id="0b1ced8aff"><path d="M 244 175 L 247.425781 175 L 247.425781 182 L 244 182 Z M 244 175 " clip-rule="nonzero"/></clipPath><clipPath id="2d3eaa1d7b"><path d="M 232 190 L 236 190 L 236 193.789062 L 232 193.789062 Z M 232 190 " clip-rule="nonzero"/></clipPath><clipPath id="65828c77b9"><path d="M 232 190 L 236 190 L 236 193.789062 L 232 193.789062 Z M 232 190 " clip-rule="nonzero"/></clipPath><clipPath id="767778ed69"><path d="M 225 200.949219 L 232 200.949219 L 232 205 L 225 205 Z M 225 200.949219 " clip-rule="nonzero"/></clipPath><clipPath id="8acced67c9"><path d="M 219.257812 207 L 223 207 L 223 214 L 219.257812 214 Z M 219.257812 207 " clip-rule="nonzero"/></clipPath><clipPath id="de4ccdbc66"><path d="M 234 200.949219 L 242 200.949219 L 242 205 L 234 205 Z M 234 200.949219 " clip-rule="nonzero"/></clipPath><clipPath id="1181abb33d"><path d="M 244 207 L 246.957031 207 L 246.957031 214 L 244 214 Z M 244 207 " clip-rule="nonzero"/></clipPath><clipPath id="4c2f323828"><path d="M 231 222 L 235 222 L 235 225.652344 L 231 225.652344 Z M 231 222 " clip-rule="nonzero"/></clipPath><clipPath id="1d7a68c968"><path d="M 231 222 L 235 222 L 235 225.652344 L 231 225.652344 Z M 231 222 " clip-rule="nonzero"/></clipPath><clipPath id="762c489178"><path d="M 93.59375 188.792969 L 99.007812 188.792969 L 99.007812 241.574219 L 93.59375 241.574219 Z M 93.59375 188.792969 " clip-rule="nonzero"/></clipPath><clipPath id="069489f29f"><path d="M 97.507812 241.574219 L 95.089844 241.574219 C 94.261719 241.574219 93.59375 240.90625 93.59375 240.078125 L 93.59375 190.296875 C 93.59375 189.46875 94.261719 188.796875 95.089844 188.796875 L 97.507812 188.796875 C 98.335938 188.796875 99.007812 189.46875 99.007812 190.296875 L 99.007812 240.078125 C 99.007812 240.90625 98.335938 241.574219 97.507812 241.574219 Z M 97.507812 241.574219 " clip-rule="nonzero"/></clipPath><clipPath id="05e4110927"><path d="M 93.765625 188.425781 L 99.007812 188.425781 L 99.007812 241.527344 L 93.765625 241.527344 Z M 93.765625 188.425781 " clip-rule="nonzero"/></clipPath><clipPath id="81907769fa"><path d="M 97.511719 241.527344 L 95.097656 241.527344 C 94.273438 241.527344 93.601562 240.859375 93.601562 240.03125 L 93.601562 190.339844 C 93.601562 189.515625 94.273438 188.847656 95.097656 188.847656 L 97.511719 188.847656 C 98.335938 188.847656 99.007812 189.515625 99.007812 190.339844 L 99.007812 240.03125 C 99.007812 240.859375 98.335938 241.527344 97.511719 241.527344 Z M 97.511719 241.527344 " clip-rule="nonzero"/></clipPath><clipPath id="947164bdee"><path d="M 71.359375 167.3125 L 121.511719 167.3125 L 121.511719 209.980469 L 71.359375 209.980469 Z M 71.359375 167.3125 " clip-rule="nonzero"/></clipPath><clipPath id="33b0372006"><path d="M 224 10.25 L 231 10.25 L 231 14 L 224 14 Z M 224 10.25 " clip-rule="nonzero"/></clipPath><clipPath id="8fe2bfec5d"><path d="M 218.320312 16 L 222 16 L 222 23 L 218.320312 23 Z M 218.320312 16 " clip-rule="nonzero"/></clipPath><clipPath id="214b638f51"><path d="M 233 10.25 L 241 10.25 L 241 14 L 233 14 Z M 233 10.25 " clip-rule="nonzero"/></clipPath><clipPath id="d57c873626"><path d="M 243 16 L 246.015625 16 L 246.015625 23 L 243 23 Z M 243 16 " clip-rule="nonzero"/></clipPath><clipPath id="d235ed9c53"><path d="M 230 31 L 234 31 L 234 34.953125 L 230 34.953125 Z M 230 31 " clip-rule="nonzero"/></clipPath><clipPath id="4c45b95f59"><path d="M 230 31 L 234 31 L 234 34.953125 L 230 34.953125 Z M 230 31 " clip-rule="nonzero"/></clipPath></defs><g clip-path="url(#6a5eb06406)"><g clip-path="url(#a1db899a69)"><g clip-path="url(#b552fc345c)"><path fill="#734b39" d="M 54.914062 123.074219 L 45.402344 111.011719 L 111.984375 58.511719 L 121.496094 70.578125 Z M 54.914062 123.074219 " fill-opacity="1" fill-rule="nonzero"/></g></g></g><g clip-path="url(#137e8ccabb)"><g clip-path="url(#be71880a41)"><g clip-path="url(#fcfca4afdf)"><g clip-path="url(#ec8ac203ce)"><path stroke-linecap="butt" transform="matrix(-0.46347, -0.587842, 0.587842, -0.46347, 54.919618, 123.068591)" fill="none" stroke-linejoin="miter" d="M 2.998706 0.00245599 L 17.515006 -0.00195379 C 19.172697 0.00258113 20.51631 1.341014 20.515873 3.001936 L 20.515893 110.259961 C 20.518687 111.916785 19.172926 113.261265 17.515235 113.25673 L 2.998934 113.26114 C 1.345341 113.259836 0.000860884 111.914074 0.00216498 110.260481 L -0.00195317 2.999225 C 0.00258174 1.341534 1.345112 0.00115189 2.998706 0.00245599 Z M 2.998706 0.00245599 " stroke="#000000" stroke-width="6" stroke-opacity="1" stroke-miterlimit="4"/></g></g></g></g><path stroke-linecap="butt" transform="matrix(0.00958353, 0.748513, -0.748513, 0.00958353, 158.248539, 66.681625)" fill="none" stroke-linejoin="miter" d="M 0.000766491 2.9988 L 40.920425 3.000843 " stroke="#beb6b3" stroke-width="6" stroke-opacity="1" stroke-miterlimit="4"/><g clip-path="url(#a118ddc9af)"><g clip-path="url(#28222287de)"><path stroke-linecap="butt" transform="matrix(0.748574, 0, 0, 0.748574, 121.259825, 95.998245)" fill="none" stroke-linejoin="miter" d="M 70.428089 41.08566 L 70.610728 40.767347 C 75.432395 32.334648 75.395867 21.971195 70.522017 13.569806 C 65.64295 5.168417 56.667552 0.00234487 46.951163 0.00234487 C 37.239992 0.00234487 28.259377 5.168417 23.385527 13.569806 C 18.511678 21.971195 18.47515 32.334648 23.296817 40.767347 L 23.474238 41.08566 C 28.290686 49.507922 37.250429 54.710522 46.951163 54.710522 C 56.657116 54.710522 65.616858 49.507922 70.428089 41.08566 Z M 70.428089 41.08566 " stroke="#beb6b3" stroke-width="10" stroke-opacity="1" stroke-miterlimit="4"/></g></g><g clip-path="url(#50f42768cd)"><g clip-path="url(#1d2262e912)"><path fill="#beb6b3" d="M 145.585938 93.351562 L 167.867188 93.351562 L 167.867188 97.335938 L 145.585938 97.335938 Z M 145.585938 93.351562 " fill-opacity="1" fill-rule="nonzero"/></g></g><g clip-path="url(#6447d8d8b6)"><g clip-path="url(#2a73fd659a)"><path fill="#beb6b3" d="M 147.46875 89.324219 L 165.355469 89.324219 L 165.355469 95.34375 L 147.46875 95.34375 Z M 147.46875 89.324219 " fill-opacity="1" fill-rule="nonzero"/></g></g><g clip-path="url(#1f2eb1ad3d)"><g clip-path="url(#9c7c21f1b8)"><path fill="#956853" d="M 3.15625 75.183594 L 3.15625 41.824219 L 202.785156 41.824219 L 202.785156 75.183594 Z M 3.15625 75.183594 " fill-opacity="1" fill-rule="nonzero"/></g></g><g clip-path="url(#19285fb200)"><g clip-path="url(#3dd39ba057)"><path stroke-linecap="butt" transform="matrix(0, -0.748574, 0.748574, 0, 3.191, 75.182964)" fill="none" stroke-linejoin="miter" d="M 6.996838 0.000542662 L 37.549716 0.000542662 C 39.407414 0.000542662 41.186839 0.736317 42.496621 2.051317 C 43.811621 3.361098 44.547395 5.140523 44.547395 6.998222 L 44.547395 259.598252 C 44.547395 261.45595 43.811621 263.235375 42.496621 264.550375 C 41.186839 265.860157 39.407414 266.595931 37.549716 266.595931 L 6.996838 266.595931 C 5.139139 266.595931 3.359715 265.860157 2.049933 264.550375 C 0.734933 263.235375 -0.000841111 261.45595 -0.000841111 259.598252 L -0.000841111 6.998222 C -0.000841111 5.140523 0.734933 3.361098 2.049933 2.051317 C 3.359715 0.736317 5.139139 0.000542662 6.996838 0.000542662 Z M 6.996838 0.000542662 " stroke="#000000" stroke-width="6" stroke-opacity="1" stroke-miterlimit="4"/></g></g><g clip-path="url(#3142b96d58)"><path fill="#545454" d="M 267.761719 244.433594 C 267.761719 244.433594 194.992188 237.886719 121.21875 237.886719 C 22.839844 237.886719 0.605469 244.433594 0.605469 244.433594 C 0.605469 244.433594 22.808594 250.980469 98.109375 250.980469 C 171.882812 250.980469 267.761719 244.433594 267.761719 244.433594 Z M 267.761719 244.433594 " fill-opacity="1" fill-rule="nonzero"/></g><g clip-path="url(#3d7ef555ca)"><path fill="#545454" d="M 34.1875 247.339844 C 34.1875 247.339844 98.234375 253.101562 163.167969 253.101562 C 249.753906 253.101562 269.324219 247.339844 269.324219 247.339844 C 269.324219 247.339844 249.78125 241.578125 183.507812 241.578125 C 118.574219 241.578125 34.1875 247.339844 34.1875 247.339844 Z M 34.1875 247.339844 " fill-opacity="1" fill-rule="nonzero"/></g><g clip-path="url(#ee2932202b)"><g clip-path="url(#71ff5e80f3)"><path fill="#956853" d="M 34.550781 4.585938 L 67.90625 4.585938 L 67.90625 241.613281 L 34.550781 241.613281 Z M 34.550781 4.585938 " fill-opacity="1" fill-rule="nonzero"/></g></g><g clip-path="url(#c27f90bc8b)"><g clip-path="url(#c96b02fcc2)"><path stroke-linecap="butt" transform="matrix(0.748574, 0, 0, 0.748574, 34.549488, 4.623678)" fill="none" stroke-linejoin="miter" d="M 6.999407 0.00176567 L 37.547067 0.00176567 C 39.404765 0.00176567 41.18419 0.73754 42.49919 2.047321 C 43.808972 3.362321 44.544745 5.141746 44.544745 6.999445 L 44.544745 309.480767 C 44.544745 311.338465 43.808972 313.11789 42.49919 314.427672 C 41.18419 315.742672 39.404765 316.478446 37.547067 316.478446 L 6.999407 316.478446 C 5.141708 316.478446 3.362283 315.742672 2.047283 314.427672 C 0.737502 313.11789 0.00172771 311.338465 0.00172771 309.480767 L 0.00172771 6.999445 C 0.00172771 5.141746 0.737502 3.362321 2.047283 2.047321 C 3.362283 0.73754 5.141708 0.00176567 6.999407 0.00176567 Z M 6.999407 0.00176567 " stroke="#000000" stroke-width="6" stroke-opacity="1" stroke-miterlimit="4"/></g></g><g clip-path="url(#c7b70c6ec7)"><g clip-path="url(#580c2c9130)"><path fill="#734b39" d="M 21.367188 241.570312 L 21.367188 215.425781 L 83.460938 215.425781 L 83.460938 241.570312 Z M 21.367188 241.570312 " fill-opacity="1" fill-rule="nonzero"/></g></g><g clip-path="url(#c804c59522)"><g clip-path="url(#9a81f94b2f)"><path stroke-linecap="butt" transform="matrix(0, -0.748574, 0.748574, 0, 21.365382, 241.569804)" fill="none" stroke-linejoin="miter" d="M 6.997 0.00241232 L 27.922199 0.00241232 C 29.779898 0.00241232 31.559322 0.738186 32.869104 2.047968 C 34.184104 3.362968 34.919878 5.142393 34.919878 7.000091 L 34.919878 75.938447 C 34.919878 77.796146 34.184104 79.57557 32.869104 80.885352 C 31.559322 82.200352 29.779898 82.936126 27.922199 82.936126 L 6.997 82.936126 C 5.14452 82.936126 3.359877 82.200352 2.050095 80.885352 C 0.735095 79.57557 -0.00067895 77.796146 -0.00067895 75.938447 L -0.00067895 7.000091 C -0.00067895 5.142393 0.735095 3.362968 2.050095 2.047968 C 3.359877 0.738186 5.14452 0.00241232 6.997 0.00241232 Z M 6.997 0.00241232 " stroke="#000000" stroke-width="6" stroke-opacity="1" stroke-miterlimit="4"/></g></g><g clip-path="url(#96f80f1657)"><path fill="#000000" d="M 64.804688 227.210938 C 62.941406 225.347656 59.917969 225.347656 58.050781 227.210938 C 56.1875 229.078125 56.1875 232.101562 58.050781 233.964844 C 59.917969 235.828125 62.941406 235.828125 64.804688 233.964844 C 66.667969 232.101562 66.667969 229.078125 64.804688 227.210938 Z M 63.191406 232.789062 L 61.839844 231.917969 C 61.578125 231.75 61.246094 231.753906 60.984375 231.921875 L 59.664062 232.789062 C 59.378906 232.988281 59.027344 232.636719 59.230469 232.351562 L 60.089844 231.011719 C 60.257812 230.753906 60.257812 230.421875 60.089844 230.164062 L 59.230469 228.828125 C 59.027344 228.539062 59.378906 228.191406 59.664062 228.390625 L 60.984375 229.253906 C 61.242188 229.425781 61.578125 229.425781 61.839844 229.261719 L 63.191406 228.390625 C 63.476562 228.191406 63.828125 228.539062 63.628906 228.828125 L 62.753906 230.160156 C 62.582031 230.417969 62.582031 230.757812 62.753906 231.019531 L 63.628906 232.351562 C 63.828125 232.636719 63.476562 232.988281 63.191406 232.789062 Z M 63.191406 232.789062 " fill-opacity="1" fill-rule="nonzero"/></g><g clip-path="url(#2188e469b7)"><path fill="#000000" d="M 60.410156 100.507812 C 58.679688 98.777344 55.871094 98.777344 54.140625 100.507812 C 52.410156 102.242188 52.410156 105.046875 54.140625 106.777344 C 55.871094 108.511719 58.679688 108.511719 60.410156 106.777344 C 62.140625 105.046875 62.140625 102.242188 60.410156 100.507812 Z M 58.914062 105.6875 L 57.65625 104.878906 C 57.414062 104.726562 57.105469 104.726562 56.863281 104.882812 L 55.636719 105.6875 C 55.371094 105.875 55.046875 105.546875 55.234375 105.28125 L 56.03125 104.039062 C 56.1875 103.800781 56.1875 103.492188 56.03125 103.253906 L 55.234375 102.007812 C 55.046875 101.742188 55.371094 101.417969 55.636719 101.605469 L 56.863281 102.40625 C 57.101562 102.5625 57.414062 102.566406 57.65625 102.410156 L 58.914062 101.605469 C 59.179688 101.417969 59.503906 101.742188 59.316406 102.007812 L 58.507812 103.246094 C 58.347656 103.488281 58.347656 103.800781 58.507812 104.042969 L 59.316406 105.28125 C 59.503906 105.546875 59.179688 105.875 58.914062 105.6875 Z M 58.914062 105.6875 " fill-opacity="1" fill-rule="nonzero"/></g><g clip-path="url(#80b4dbab0e)"><path fill="#000000" d="M 159.769531 60.378906 C 158.035156 58.648438 155.230469 58.648438 153.5 60.378906 C 151.769531 62.109375 151.769531 64.917969 153.5 66.648438 C 155.230469 68.378906 158.035156 68.378906 159.769531 66.648438 C 161.5 64.917969 161.5 62.109375 159.769531 60.378906 Z M 158.269531 65.554688 L 157.015625 64.746094 C 156.773438 64.59375 156.460938 64.59375 156.222656 64.75 L 154.996094 65.554688 C 154.730469 65.742188 154.40625 65.417969 154.589844 65.148438 L 155.390625 63.90625 C 155.546875 63.667969 155.546875 63.359375 155.390625 63.121094 L 154.589844 61.878906 C 154.40625 61.609375 154.730469 61.285156 154.996094 61.472656 L 156.222656 62.277344 C 156.460938 62.433594 156.773438 62.433594 157.015625 62.28125 L 158.269531 61.472656 C 158.535156 61.285156 158.863281 61.609375 158.675781 61.878906 L 157.863281 63.113281 C 157.707031 63.355469 157.707031 63.667969 157.863281 63.914062 L 158.675781 65.148438 C 158.863281 65.417969 158.535156 65.742188 158.269531 65.554688 Z M 158.269531 65.554688 " fill-opacity="1" fill-rule="nonzero"/></g><g clip-path="url(#e59f1ec83c)"><path fill="#000000" d="M 60.410156 50.457031 C 58.679688 48.726562 55.871094 48.726562 54.140625 50.457031 C 52.410156 52.191406 52.410156 54.996094 54.140625 56.726562 C 55.871094 58.457031 58.679688 58.457031 60.410156 56.726562 C 62.140625 54.996094 62.140625 52.191406 60.410156 50.457031 Z M 58.914062 55.636719 L 57.65625 54.828125 C 57.414062 54.671875 57.105469 54.675781 56.863281 54.832031 L 55.636719 55.636719 C 55.371094 55.820312 55.046875 55.496094 55.234375 55.230469 L 56.03125 53.988281 C 56.1875 53.746094 56.1875 53.441406 56.03125 53.199219 L 55.234375 51.957031 C 55.046875 51.691406 55.371094 51.367188 55.636719 51.550781 L 56.863281 52.355469 C 57.101562 52.511719 57.414062 52.515625 57.65625 52.359375 L 58.914062 51.550781 C 59.179688 51.367188 59.503906 51.691406 59.316406 51.957031 L 58.507812 53.195312 C 58.347656 53.4375 58.347656 53.75 58.507812 53.992188 L 59.316406 55.230469 C 59.503906 55.496094 59.179688 55.820312 58.914062 55.636719 Z M 58.914062 55.636719 " fill-opacity="1" fill-rule="nonzero"/></g><g clip-path="url(#fd4ef81acf)"><g clip-path="url(#0c9b63dc95)"><g clip-path="url(#8f7ec9726a)"><g clip-path="url(#8dfd1d6f8a)"><path fill="#000000" d="M 24.753906 182.898438 C 24.699219 182.863281 24.636719 182.851562 24.578125 182.867188 L 19.410156 184.042969 C 19.304688 184.066406 19.230469 184.160156 19.230469 184.269531 L 18.84375 228.539062 L 27.667969 229.761719 C 27.714844 229.769531 27.761719 229.792969 27.796875 229.828125 L 36.015625 237.226562 L 36.066406 237.183594 L 38.136719 235.867188 L 36.1875 234.78125 L 37.175781 232.519531 L 35.347656 231.296875 L 36.511719 229.195312 L 34.730469 228.085938 L 36.179688 225.910156 L 34.136719 224.753906 L 35.242188 222.6875 L 33.097656 221.605469 L 34.714844 219.5625 L 32.699219 218.484375 L 34.050781 216.28125 L 32.140625 215.085938 L 33.328125 213.324219 L 31.234375 212.226562 L 32.746094 209.800781 L 30.722656 208.738281 L 31.773438 206.6875 L 29.957031 205.691406 L 31.117188 203.386719 L 29.308594 202.417969 L 30.351562 200.339844 L 28.460938 199.109375 L 29.832031 196.871094 L 27.578125 195.824219 L 28.894531 193.6875 L 27.050781 192.65625 L 28.488281 190.414062 L 26.664062 189.476562 L 27.707031 187.355469 L 25.710938 186.113281 L 26.886719 183.992188 Z M 24.753906 182.898438 " fill-opacity="1" fill-rule="nonzero"/></g></g></g></g><g clip-path="url(#e093fd29b0)"><g clip-path="url(#07cc5354fa)"><g clip-path="url(#4e4ade0957)"><g clip-path="url(#d67309330d)"><path fill="#000000" d="M 27.269531 230.929688 L 18.925781 229.824219 C 18.894531 229.820312 18.863281 229.824219 18.832031 229.832031 C 18.78125 229.84375 18.738281 229.871094 18.707031 229.910156 C 18.699219 229.921875 18.632812 230.007812 18.554688 230.15625 C 18.460938 230.335938 18.367188 230.632812 18.351562 231.011719 C 18.332031 231.613281 18.515625 232.414062 19.234375 233.265625 C 19.597656 233.699219 19.804688 234.09375 19.914062 234.445312 C 19.882812 234.714844 19.796875 234.9375 19.710938 235.097656 C 19.625 235.265625 19.542969 235.355469 19.542969 235.355469 C 19.535156 235.367188 19.527344 235.375 19.519531 235.386719 C 19.363281 235.617188 19.21875 235.859375 19.09375 236.101562 C 17.675781 238.800781 18.488281 241.410156 18.949219 242.492188 C 19.023438 242.667969 19.089844 242.804688 19.136719 242.894531 C 19.128906 242.90625 19.125 242.914062 19.121094 242.925781 C 18.527344 244.230469 18.460938 245.203125 18.917969 245.8125 C 18.964844 245.871094 19.015625 245.925781 19.066406 245.976562 C 19.066406 245.976562 19.066406 245.976562 19.070312 245.980469 C 19.683594 246.796875 21.039062 246.570312 21.097656 246.558594 C 21.160156 246.546875 21.214844 246.511719 21.253906 246.460938 C 21.902344 245.492188 23.007812 244.617188 23.316406 244.382812 C 25.484375 244.824219 29.574219 244.449219 30.476562 244.355469 C 30.933594 245.265625 32.773438 246.675781 32.996094 246.84375 C 33.019531 246.863281 33.042969 246.875 33.074219 246.882812 C 33.617188 247.035156 34.003906 246.992188 34.28125 246.863281 C 34.539062 246.742188 34.703125 246.546875 34.804688 246.351562 C 35.160156 245.667969 34.945312 244.652344 34.9375 244.609375 C 34.929688 244.578125 34.917969 244.550781 34.898438 244.523438 C 34.621094 244.132812 34.65625 243.207031 34.699219 242.835938 C 35.8125 240.398438 35.246094 238.589844 35.007812 238.027344 C 34.964844 237.921875 34.929688 237.863281 34.925781 237.847656 C 34.914062 237.828125 34.898438 237.808594 34.878906 237.789062 L 27.394531 230.988281 C 27.359375 230.957031 27.316406 230.9375 27.269531 230.929688 Z M 31.375 238.773438 L 30.910156 241.605469 L 30.886719 241.738281 C 30.882812 241.777344 30.871094 241.8125 30.851562 241.847656 C 30.792969 241.960938 30.671875 242.035156 30.539062 242.035156 L 22.746094 242.007812 C 22.554688 242.007812 22.402344 241.855469 22.398438 241.664062 L 22.644531 238.226562 C 22.640625 238.160156 22.660156 238.09375 22.695312 238.039062 C 22.714844 238.003906 22.738281 237.976562 22.769531 237.949219 C 22.847656 237.882812 22.957031 237.851562 23.0625 237.875 L 31.101562 238.375 C 31.285156 238.414062 31.40625 238.585938 31.375 238.773438 Z M 31.375 238.773438 " fill-opacity="1" fill-rule="nonzero"/></g></g></g></g><g clip-path="url(#baddd30b92)"><g clip-path="url(#cc3bbf0923)"><g clip-path="url(#006ff643d3)"><g clip-path="url(#c58d974e4c)"><path fill="#000000" d="M 48.097656 207.410156 L 48.882812 198.546875 C 48.9375 197.90625 48.875 197.277344 48.691406 196.660156 L 48.660156 196.5625 C 48.476562 195.945312 48.414062 195.316406 48.46875 194.671875 L 49.597656 181.960938 C 49.621094 181.664062 49.703125 181.382812 49.84375 181.117188 C 49.980469 180.851562 50.164062 180.625 50.394531 180.433594 C 50.625 180.242188 50.882812 180.101562 51.167969 180.015625 C 51.453125 179.925781 51.742188 179.894531 52.042969 179.921875 C 52.339844 179.949219 52.621094 180.03125 52.886719 180.171875 C 53.148438 180.3125 53.378906 180.496094 53.570312 180.726562 C 53.761719 180.957031 53.902344 181.214844 53.992188 181.5 C 54.082031 181.785156 54.113281 182.074219 54.085938 182.375 L 52.960938 195.054688 C 52.90625 195.71875 52.726562 196.339844 52.421875 196.929688 C 52.121094 197.515625 51.941406 198.140625 51.878906 198.796875 L 51.089844 207.683594 C 51.082031 207.792969 51.019531 207.839844 50.910156 207.816406 C 50.472656 207.726562 50.03125 207.660156 49.585938 207.621094 C 49.140625 207.578125 48.691406 207.558594 48.242188 207.566406 C 48.132812 207.566406 48.082031 207.511719 48.089844 207.402344 Z M 48.097656 207.410156 " fill-opacity="1" fill-rule="nonzero"/></g></g></g></g><g clip-path="url(#dc277cd35f)"><g clip-path="url(#ac657b6edd)"><g clip-path="url(#5eb18641eb)"><g clip-path="url(#272777472a)"><path fill="#000000" d="M 39.078125 215.234375 L 41.171875 215.425781 C 41.296875 215.4375 41.40625 215.402344 41.503906 215.324219 C 41.597656 215.242188 41.652344 215.140625 41.660156 215.015625 C 42.203125 214.613281 42.804688 214.441406 43.476562 214.503906 L 43.550781 214.511719 C 43.839844 214.542969 44.105469 214.636719 44.355469 214.792969 C 44.585938 214.929688 44.835938 215.011719 45.105469 215.039062 L 47.671875 215.273438 C 48.753906 215.375 49.835938 215.355469 50.914062 215.21875 C 51.992188 215.085938 53.042969 214.835938 54.066406 214.472656 C 55.089844 214.109375 56.058594 213.640625 56.980469 213.066406 C 57.902344 212.492188 58.75 211.824219 59.527344 211.066406 C 59.582031 211.007812 59.589844 210.941406 59.542969 210.875 C 59.496094 210.808594 59.433594 210.789062 59.359375 210.820312 C 58.148438 211.375 56.882812 211.589844 55.558594 211.464844 L 53.089844 211.238281 C 52.867188 211.214844 52.6875 211.121094 52.542969 210.949219 C 52.402344 210.78125 52.339844 210.582031 52.359375 210.363281 L 52.460938 209.210938 C 52.472656 209.09375 52.421875 209.015625 52.3125 208.976562 C 50.472656 208.332031 48.589844 208.160156 46.667969 208.457031 C 46.550781 208.476562 46.488281 208.542969 46.480469 208.660156 L 46.375 209.808594 C 46.355469 210.03125 46.261719 210.214844 46.09375 210.355469 C 45.921875 210.5 45.726562 210.558594 45.503906 210.539062 C 45.214844 210.515625 44.933594 210.558594 44.664062 210.667969 C 44.410156 210.761719 44.148438 210.792969 43.878906 210.769531 L 43.808594 210.761719 C 43.140625 210.699219 42.574219 210.421875 42.113281 209.925781 C 42.125 209.804688 42.09375 209.691406 42.011719 209.597656 C 41.933594 209.5 41.832031 209.449219 41.707031 209.4375 L 39.609375 209.242188 C 39.484375 209.230469 39.375 209.265625 39.28125 209.347656 C 39.183594 209.425781 39.132812 209.527344 39.121094 209.652344 L 38.667969 214.742188 C 38.660156 214.867188 38.695312 214.976562 38.773438 215.070312 C 38.851562 215.167969 38.953125 215.222656 39.078125 215.234375 Z M 39.078125 215.234375 " fill-opacity="1" fill-rule="nonzero"/></g></g></g></g><g clip-path="url(#fc63f0144c)"><path fill="#000000" d="M 224.574219 41.835938 L 230.78125 41.835938 L 230.78125 44.933594 L 224.574219 44.933594 Z M 224.574219 41.835938 " fill-opacity="1" fill-rule="nonzero"/></g><path fill="#000000" d="M 221.472656 44.929688 L 224.59375 44.929688 L 224.59375 48.082031 L 221.472656 48.082031 Z M 221.472656 44.929688 " fill-opacity="1" fill-rule="nonzero"/><g clip-path="url(#b165abe57e)"><path fill="#000000" d="M 218.335938 48.066406 L 221.492188 48.066406 L 221.492188 54.273438 L 218.335938 54.273438 Z M 218.335938 48.066406 " fill-opacity="1" fill-rule="nonzero"/></g><path fill="#000000" d="M 230.769531 44.917969 L 233.871094 44.917969 L 233.871094 48.015625 L 230.769531 48.015625 Z M 230.769531 44.917969 " fill-opacity="1" fill-rule="nonzero"/><g clip-path="url(#c33f21f99c)"><path fill="#000000" d="M 233.886719 41.828125 L 240.113281 41.828125 L 240.113281 44.984375 L 233.886719 44.984375 Z M 233.886719 41.828125 " fill-opacity="1" fill-rule="nonzero"/></g><path fill="#000000" d="M 240.039062 44.929688 L 243.195312 44.929688 L 243.195312 48.101562 L 240.039062 48.101562 Z M 240.039062 44.929688 " fill-opacity="1" fill-rule="nonzero"/><g clip-path="url(#78f623ebf3)"><path fill="#000000" d="M 243.152344 48.046875 L 246.304688 48.046875 L 246.304688 54.253906 L 243.152344 54.253906 Z M 243.152344 48.046875 " fill-opacity="1" fill-rule="nonzero"/></g><path fill="#000000" d="M 240.039062 54.175781 L 243.195312 54.175781 L 243.195312 57.347656 L 240.039062 57.347656 Z M 240.039062 54.175781 " fill-opacity="1" fill-rule="nonzero"/><path fill="#000000" d="M 236.976562 57.3125 L 240.074219 57.3125 L 240.074219 60.410156 L 236.976562 60.410156 Z M 236.976562 57.3125 " fill-opacity="1" fill-rule="nonzero"/><path fill="#000000" d="M 233.875 60.410156 L 236.992188 60.410156 L 236.992188 63.566406 L 233.875 63.566406 Z M 233.875 60.410156 " fill-opacity="1" fill-rule="nonzero"/><path fill="#000000" d="M 221.492188 54.246094 L 224.59375 54.246094 L 224.59375 57.347656 L 221.492188 57.347656 Z M 221.492188 54.246094 " fill-opacity="1" fill-rule="nonzero"/><path fill="#000000" d="M 224.574219 57.347656 L 227.675781 57.347656 L 227.675781 60.449219 L 224.574219 60.449219 Z M 224.574219 57.347656 " fill-opacity="1" fill-rule="nonzero"/><g clip-path="url(#c4faa4103d)"><path fill="#000000" d="M 230.761719 63.566406 L 233.863281 63.566406 L 233.863281 66.667969 L 230.761719 66.667969 Z M 230.761719 63.566406 " fill-opacity="1" fill-rule="nonzero"/></g><path fill="#000000" d="M 224.589844 51.132812 L 224.589844 44.925781 L 227.75 44.925781 L 227.75 57.335938 L 224.589844 57.335938 Z M 224.589844 51.132812 " fill-opacity="1" fill-rule="nonzero"/><path fill="#000000" d="M 227.667969 52.679688 L 227.667969 44.925781 L 230.773438 44.925781 L 230.773438 60.433594 L 227.667969 60.433594 Z M 227.667969 52.679688 " fill-opacity="1" fill-rule="nonzero"/><path fill="#000000" d="M 233.863281 52.695312 L 233.863281 44.925781 L 236.988281 44.925781 L 236.988281 60.464844 L 233.863281 60.464844 Z M 233.863281 52.695312 " fill-opacity="1" fill-rule="nonzero"/><path fill="#000000" d="M 236.914062 51.132812 L 236.914062 44.925781 L 240.089844 44.925781 L 240.089844 57.335938 L 236.914062 57.335938 Z M 236.914062 51.132812 " fill-opacity="1" fill-rule="nonzero"/><path fill="#000000" d="M 221.464844 51.15625 L 221.464844 48.054688 L 224.777344 48.054688 L 224.777344 54.261719 L 221.464844 54.261719 Z M 221.464844 51.15625 " fill-opacity="1" fill-rule="nonzero"/><path fill="#000000" d="M 240.039062 51.148438 L 240.039062 48.054688 L 243.199219 48.054688 L 243.199219 54.246094 L 240.039062 54.246094 Z M 240.039062 51.148438 " fill-opacity="1" fill-rule="nonzero"/><path fill="#000000" d="M 230.734375 55.785156 L 230.734375 48.019531 L 233.921875 48.019531 L 233.921875 63.550781 L 230.734375 63.550781 Z M 230.734375 55.785156 " fill-opacity="1" fill-rule="nonzero"/><path fill="#000000" d="M 227.667969 61.992188 L 227.667969 60.445312 L 230.789062 60.445312 L 230.789062 63.535156 L 227.667969 63.535156 Z M 227.667969 61.992188 " fill-opacity="1" fill-rule="nonzero"/><path fill="#000000" d="M 237.027344 58.875 L 237.027344 57.339844 L 240.058594 57.339844 L 240.058594 60.40625 L 237.027344 60.40625 Z M 237.027344 58.875 " fill-opacity="1" fill-rule="nonzero"/><path fill="#000000" d="M 233.875 62 L 233.875 60.433594 L 236.988281 60.433594 L 236.988281 63.566406 L 233.875 63.566406 Z M 233.875 62 " fill-opacity="1" fill-rule="nonzero"/><g clip-path="url(#613aba4ded)"><path fill="#000000" d="M 230.789062 65.089844 L 230.789062 63.539062 L 233.878906 63.539062 L 233.878906 66.636719 L 230.789062 66.636719 Z M 230.789062 65.089844 " fill-opacity="1" fill-rule="nonzero"/></g><path fill="#e25757" d="M 224.589844 51.203125 L 224.589844 45 L 227.75 45 L 227.75 57.410156 L 224.589844 57.410156 Z M 224.589844 51.203125 " fill-opacity="1" fill-rule="nonzero"/><path fill="#e25757" d="M 227.667969 52.753906 L 227.667969 45 L 230.769531 45 L 230.769531 60.507812 L 227.667969 60.507812 Z M 227.667969 52.753906 " fill-opacity="1" fill-rule="nonzero"/><path fill="#e25757" d="M 233.867188 52.769531 L 233.867188 45 L 236.988281 45 L 236.988281 60.539062 L 233.867188 60.539062 Z M 233.867188 52.769531 " fill-opacity="1" fill-rule="nonzero"/><path fill="#e25757" d="M 236.914062 51.203125 L 236.914062 45 L 240.089844 45 L 240.089844 57.410156 L 236.914062 57.410156 Z M 236.914062 51.203125 " fill-opacity="1" fill-rule="nonzero"/><path fill="#e25757" d="M 221.464844 51.230469 L 221.464844 48.125 L 224.777344 48.125 L 224.777344 54.332031 L 221.464844 54.332031 Z M 221.464844 51.230469 " fill-opacity="1" fill-rule="nonzero"/><path fill="#e25757" d="M 240.039062 51.222656 L 240.039062 48.128906 L 243.199219 48.128906 L 243.199219 54.320312 L 240.039062 54.320312 Z M 240.039062 51.222656 " fill-opacity="1" fill-rule="nonzero"/><path fill="#e25757" d="M 230.734375 55.859375 L 230.734375 48.09375 L 233.921875 48.09375 L 233.921875 63.625 L 230.734375 63.625 Z M 230.734375 55.859375 " fill-opacity="1" fill-rule="nonzero"/><g clip-path="url(#59ce2d382c)"><path fill="#000000" d="M 224.574219 73.503906 L 230.78125 73.503906 L 230.78125 76.605469 L 224.574219 76.605469 Z M 224.574219 73.503906 " fill-opacity="1" fill-rule="nonzero"/></g><path fill="#000000" d="M 221.472656 76.597656 L 224.59375 76.597656 L 224.59375 79.753906 L 221.472656 79.753906 Z M 221.472656 76.597656 " fill-opacity="1" fill-rule="nonzero"/><g clip-path="url(#b35408a77f)"><path fill="#000000" d="M 218.335938 79.734375 L 221.492188 79.734375 L 221.492188 85.941406 L 218.335938 85.941406 Z M 218.335938 79.734375 " fill-opacity="1" fill-rule="nonzero"/></g><path fill="#000000" d="M 230.769531 76.585938 L 233.871094 76.585938 L 233.871094 79.6875 L 230.769531 79.6875 Z M 230.769531 76.585938 " fill-opacity="1" fill-rule="nonzero"/><g clip-path="url(#050fd15d20)"><path fill="#000000" d="M 233.886719 73.5 L 240.113281 73.5 L 240.113281 76.652344 L 233.886719 76.652344 Z M 233.886719 73.5 " fill-opacity="1" fill-rule="nonzero"/></g><path fill="#000000" d="M 240.039062 76.597656 L 243.195312 76.597656 L 243.195312 79.773438 L 240.039062 79.773438 Z M 240.039062 76.597656 " fill-opacity="1" fill-rule="nonzero"/><g clip-path="url(#9a7305b320)"><path fill="#000000" d="M 243.152344 79.71875 L 246.304688 79.71875 L 246.304688 85.921875 L 243.152344 85.921875 Z M 243.152344 79.71875 " fill-opacity="1" fill-rule="nonzero"/></g><path fill="#000000" d="M 240.039062 85.847656 L 243.195312 85.847656 L 243.195312 89.019531 L 240.039062 89.019531 Z M 240.039062 85.847656 " fill-opacity="1" fill-rule="nonzero"/><path fill="#000000" d="M 236.976562 88.980469 L 240.074219 88.980469 L 240.074219 92.082031 L 236.976562 92.082031 Z M 236.976562 88.980469 " fill-opacity="1" fill-rule="nonzero"/><path fill="#000000" d="M 233.875 92.082031 L 236.992188 92.082031 L 236.992188 95.238281 L 233.875 95.238281 Z M 233.875 92.082031 " fill-opacity="1" fill-rule="nonzero"/><path fill="#000000" d="M 221.492188 85.917969 L 224.59375 85.917969 L 224.59375 89.019531 L 221.492188 89.019531 Z M 221.492188 85.917969 " fill-opacity="1" fill-rule="nonzero"/><path fill="#000000" d="M 224.574219 89.019531 L 227.675781 89.019531 L 227.675781 92.117188 L 224.574219 92.117188 Z M 224.574219 89.019531 " fill-opacity="1" fill-rule="nonzero"/><g clip-path="url(#17a8598b64)"><path fill="#000000" d="M 230.761719 95.238281 L 233.863281 95.238281 L 233.863281 98.335938 L 230.761719 98.335938 Z M 230.761719 95.238281 " fill-opacity="1" fill-rule="nonzero"/></g><path fill="#000000" d="M 224.589844 82.800781 L 224.589844 76.597656 L 227.75 76.597656 L 227.75 89.003906 L 224.589844 89.003906 Z M 224.589844 82.800781 " fill-opacity="1" fill-rule="nonzero"/><path fill="#000000" d="M 227.667969 84.351562 L 227.667969 76.597656 L 230.773438 76.597656 L 230.773438 92.105469 L 227.667969 92.105469 Z M 227.667969 84.351562 " fill-opacity="1" fill-rule="nonzero"/><path fill="#000000" d="M 233.863281 84.367188 L 233.863281 76.597656 L 236.988281 76.597656 L 236.988281 92.136719 L 233.863281 92.136719 Z M 233.863281 84.367188 " fill-opacity="1" fill-rule="nonzero"/><path fill="#000000" d="M 236.914062 82.800781 L 236.914062 76.597656 L 240.089844 76.597656 L 240.089844 89.003906 L 236.914062 89.003906 Z M 236.914062 82.800781 " fill-opacity="1" fill-rule="nonzero"/><path fill="#000000" d="M 221.464844 82.828125 L 221.464844 79.726562 L 224.777344 79.726562 L 224.777344 85.929688 L 221.464844 85.929688 Z M 221.464844 82.828125 " fill-opacity="1" fill-rule="nonzero"/><path fill="#000000" d="M 240.039062 82.820312 L 240.039062 79.722656 L 243.199219 79.722656 L 243.199219 85.914062 L 240.039062 85.914062 Z M 240.039062 82.820312 " fill-opacity="1" fill-rule="nonzero"/><path fill="#000000" d="M 230.734375 87.457031 L 230.734375 79.691406 L 233.921875 79.691406 L 233.921875 95.222656 L 230.734375 95.222656 Z M 230.734375 87.457031 " fill-opacity="1" fill-rule="nonzero"/><path fill="#000000" d="M 227.667969 93.660156 L 227.667969 92.113281 L 230.789062 92.113281 L 230.789062 95.207031 L 227.667969 95.207031 Z M 227.667969 93.660156 " fill-opacity="1" fill-rule="nonzero"/><path fill="#000000" d="M 237.027344 90.542969 L 237.027344 89.007812 L 240.058594 89.007812 L 240.058594 92.078125 L 237.027344 92.078125 Z M 237.027344 90.542969 " fill-opacity="1" fill-rule="nonzero"/><path fill="#000000" d="M 233.875 93.671875 L 233.875 92.105469 L 236.988281 92.105469 L 236.988281 95.238281 L 233.875 95.238281 Z M 233.875 93.671875 " fill-opacity="1" fill-rule="nonzero"/><g clip-path="url(#a761e4cca6)"><path fill="#000000" d="M 230.789062 96.757812 L 230.789062 95.210938 L 233.878906 95.210938 L 233.878906 98.308594 L 230.789062 98.308594 Z M 230.789062 96.757812 " fill-opacity="1" fill-rule="nonzero"/></g><path fill="#e25757" d="M 224.589844 82.875 L 224.589844 76.671875 L 227.75 76.671875 L 227.75 89.078125 L 224.589844 89.078125 Z M 224.589844 82.875 " fill-opacity="1" fill-rule="nonzero"/><path fill="#e25757" d="M 227.667969 84.425781 L 227.667969 76.671875 L 230.769531 76.671875 L 230.769531 92.179688 L 227.667969 92.179688 Z M 227.667969 84.425781 " fill-opacity="1" fill-rule="nonzero"/><path fill="#e25757" d="M 233.867188 84.441406 L 233.867188 76.671875 L 236.988281 76.671875 L 236.988281 92.207031 L 233.867188 92.207031 Z M 233.867188 84.441406 " fill-opacity="1" fill-rule="nonzero"/><path fill="#e25757" d="M 236.914062 82.875 L 236.914062 76.671875 L 240.089844 76.671875 L 240.089844 89.078125 L 236.914062 89.078125 Z M 236.914062 82.875 " fill-opacity="1" fill-rule="nonzero"/><path fill="#e25757" d="M 221.464844 82.898438 L 221.464844 79.796875 L 224.777344 79.796875 L 224.777344 86.003906 L 221.464844 86.003906 Z M 221.464844 82.898438 " fill-opacity="1" fill-rule="nonzero"/><path fill="#e25757" d="M 240.039062 82.894531 L 240.039062 79.796875 L 243.199219 79.796875 L 243.199219 85.988281 L 240.039062 85.988281 Z M 240.039062 82.894531 " fill-opacity="1" fill-rule="nonzero"/><path fill="#e25757" d="M 230.734375 87.53125 L 230.734375 79.765625 L 233.921875 79.765625 L 233.921875 95.292969 L 230.734375 95.292969 Z M 230.734375 87.53125 " fill-opacity="1" fill-rule="nonzero"/><g clip-path="url(#cd1799b44d)"><path fill="#000000" d="M 225.042969 105.367188 L 231.25 105.367188 L 231.25 108.464844 L 225.042969 108.464844 Z M 225.042969 105.367188 " fill-opacity="1" fill-rule="nonzero"/></g><path fill="#000000" d="M 221.941406 108.460938 L 225.0625 108.460938 L 225.0625 111.617188 L 221.941406 111.617188 Z M 221.941406 108.460938 " fill-opacity="1" fill-rule="nonzero"/><g clip-path="url(#9ec40b3338)"><path fill="#000000" d="M 218.804688 111.597656 L 221.960938 111.597656 L 221.960938 117.804688 L 218.804688 117.804688 Z M 218.804688 111.597656 " fill-opacity="1" fill-rule="nonzero"/></g><path fill="#000000" d="M 231.238281 108.449219 L 234.339844 108.449219 L 234.339844 111.546875 L 231.238281 111.546875 Z M 231.238281 108.449219 " fill-opacity="1" fill-rule="nonzero"/><g clip-path="url(#096de70d06)"><path fill="#000000" d="M 234.355469 105.359375 L 240.582031 105.359375 L 240.582031 108.515625 L 234.355469 108.515625 Z M 234.355469 105.359375 " fill-opacity="1" fill-rule="nonzero"/></g><path fill="#000000" d="M 240.507812 108.460938 L 243.664062 108.460938 L 243.664062 111.632812 L 240.507812 111.632812 Z M 240.507812 108.460938 " fill-opacity="1" fill-rule="nonzero"/><g clip-path="url(#f33ba8af18)"><path fill="#000000" d="M 243.621094 111.578125 L 246.773438 111.578125 L 246.773438 117.785156 L 243.621094 117.785156 Z M 243.621094 111.578125 " fill-opacity="1" fill-rule="nonzero"/></g><path fill="#000000" d="M 240.507812 117.707031 L 243.664062 117.707031 L 243.664062 120.878906 L 240.507812 120.878906 Z M 240.507812 117.707031 " fill-opacity="1" fill-rule="nonzero"/><path fill="#000000" d="M 237.445312 120.84375 L 240.542969 120.84375 L 240.542969 123.941406 L 237.445312 123.941406 Z M 237.445312 120.84375 " fill-opacity="1" fill-rule="nonzero"/><path fill="#000000" d="M 234.34375 123.941406 L 237.460938 123.941406 L 237.460938 127.097656 L 234.34375 127.097656 Z M 234.34375 123.941406 " fill-opacity="1" fill-rule="nonzero"/><path fill="#000000" d="M 221.960938 117.78125 L 225.0625 117.78125 L 225.0625 120.878906 L 221.960938 120.878906 Z M 221.960938 117.78125 " fill-opacity="1" fill-rule="nonzero"/><path fill="#000000" d="M 225.042969 120.878906 L 228.144531 120.878906 L 228.144531 123.980469 L 225.042969 123.980469 Z M 225.042969 120.878906 " fill-opacity="1" fill-rule="nonzero"/><g clip-path="url(#360a1071b1)"><path fill="#000000" d="M 231.230469 127.097656 L 234.332031 127.097656 L 234.332031 130.199219 L 231.230469 130.199219 Z M 231.230469 127.097656 " fill-opacity="1" fill-rule="nonzero"/></g><path fill="#000000" d="M 225.058594 114.664062 L 225.058594 108.460938 L 228.21875 108.460938 L 228.21875 120.867188 L 225.058594 120.867188 Z M 225.058594 114.664062 " fill-opacity="1" fill-rule="nonzero"/><path fill="#000000" d="M 228.136719 116.214844 L 228.136719 108.460938 L 231.242188 108.460938 L 231.242188 123.964844 L 228.136719 123.964844 Z M 228.136719 116.214844 " fill-opacity="1" fill-rule="nonzero"/><path fill="#000000" d="M 234.332031 116.226562 L 234.332031 108.457031 L 237.457031 108.457031 L 237.457031 123.996094 L 234.332031 123.996094 Z M 234.332031 116.226562 " fill-opacity="1" fill-rule="nonzero"/><path fill="#000000" d="M 237.382812 114.664062 L 237.382812 108.460938 L 240.558594 108.460938 L 240.558594 120.867188 L 237.382812 120.867188 Z M 237.382812 114.664062 " fill-opacity="1" fill-rule="nonzero"/><path fill="#000000" d="M 221.933594 114.691406 L 221.933594 111.585938 L 225.246094 111.585938 L 225.246094 117.792969 L 221.933594 117.792969 Z M 221.933594 114.691406 " fill-opacity="1" fill-rule="nonzero"/><path fill="#000000" d="M 240.507812 114.679688 L 240.507812 111.585938 L 243.667969 111.585938 L 243.667969 117.777344 L 240.507812 117.777344 Z M 240.507812 114.679688 " fill-opacity="1" fill-rule="nonzero"/><path fill="#000000" d="M 231.203125 119.316406 L 231.203125 111.550781 L 234.394531 111.550781 L 234.394531 127.082031 L 231.203125 127.082031 Z M 231.203125 119.316406 " fill-opacity="1" fill-rule="nonzero"/><path fill="#000000" d="M 228.136719 125.523438 L 228.136719 123.976562 L 231.257812 123.976562 L 231.257812 127.066406 L 228.136719 127.066406 Z M 228.136719 125.523438 " fill-opacity="1" fill-rule="nonzero"/><path fill="#000000" d="M 237.496094 122.40625 L 237.496094 120.871094 L 240.527344 120.871094 L 240.527344 123.941406 L 237.496094 123.941406 Z M 237.496094 122.40625 " fill-opacity="1" fill-rule="nonzero"/><path fill="#000000" d="M 234.34375 125.53125 L 234.34375 123.964844 L 237.457031 123.964844 L 237.457031 127.097656 L 234.34375 127.097656 Z M 234.34375 125.53125 " fill-opacity="1" fill-rule="nonzero"/><g clip-path="url(#c70c241468)"><path fill="#000000" d="M 231.257812 128.621094 L 231.257812 127.070312 L 234.347656 127.070312 L 234.347656 130.167969 L 231.257812 130.167969 Z M 231.257812 128.621094 " fill-opacity="1" fill-rule="nonzero"/></g><path fill="#e25757" d="M 225.058594 114.738281 L 225.058594 108.53125 L 228.21875 108.53125 L 228.21875 120.941406 L 225.058594 120.941406 Z M 225.058594 114.738281 " fill-opacity="1" fill-rule="nonzero"/><path fill="#e25757" d="M 228.136719 116.285156 L 228.136719 108.53125 L 231.242188 108.53125 L 231.242188 124.039062 L 228.136719 124.039062 Z M 228.136719 116.285156 " fill-opacity="1" fill-rule="nonzero"/><path fill="#e25757" d="M 234.335938 116.300781 L 234.335938 108.53125 L 237.457031 108.53125 L 237.457031 124.070312 L 234.335938 124.070312 Z M 234.335938 116.300781 " fill-opacity="1" fill-rule="nonzero"/><path fill="#e25757" d="M 237.382812 114.738281 L 237.382812 108.53125 L 240.558594 108.53125 L 240.558594 120.941406 L 237.382812 120.941406 Z M 237.382812 114.738281 " fill-opacity="1" fill-rule="nonzero"/><path fill="#e25757" d="M 221.933594 114.761719 L 221.933594 111.65625 L 225.246094 111.65625 L 225.246094 117.863281 L 221.933594 117.863281 Z M 221.933594 114.761719 " fill-opacity="1" fill-rule="nonzero"/><path fill="#e25757" d="M 240.507812 114.753906 L 240.507812 111.660156 L 243.667969 111.660156 L 243.667969 117.851562 L 240.507812 117.851562 Z M 240.507812 114.753906 " fill-opacity="1" fill-rule="nonzero"/><path fill="#e25757" d="M 231.203125 119.390625 L 231.203125 111.625 L 234.390625 111.625 L 234.390625 127.15625 L 231.203125 127.15625 Z M 231.203125 119.390625 " fill-opacity="1" fill-rule="nonzero"/><g clip-path="url(#34847715bc)"><path fill="#000000" d="M 224.574219 137.226562 L 230.78125 137.226562 L 230.78125 140.328125 L 224.574219 140.328125 Z M 224.574219 137.226562 " fill-opacity="1" fill-rule="nonzero"/></g><path fill="#000000" d="M 221.472656 140.320312 L 224.59375 140.320312 L 224.59375 143.476562 L 221.472656 143.476562 Z M 221.472656 140.320312 " fill-opacity="1" fill-rule="nonzero"/><g clip-path="url(#8edd56b8e9)"><path fill="#000000" d="M 218.335938 143.460938 L 221.492188 143.460938 L 221.492188 149.664062 L 218.335938 149.664062 Z M 218.335938 143.460938 " fill-opacity="1" fill-rule="nonzero"/></g><path fill="#000000" d="M 230.769531 140.308594 L 233.871094 140.308594 L 233.871094 143.410156 L 230.769531 143.410156 Z M 230.769531 140.308594 " fill-opacity="1" fill-rule="nonzero"/><g clip-path="url(#83dcf1cd7e)"><path fill="#000000" d="M 233.886719 137.222656 L 240.113281 137.222656 L 240.113281 140.375 L 233.886719 140.375 Z M 233.886719 137.222656 " fill-opacity="1" fill-rule="nonzero"/></g><path fill="#000000" d="M 240.039062 140.320312 L 243.195312 140.320312 L 243.195312 143.496094 L 240.039062 143.496094 Z M 240.039062 140.320312 " fill-opacity="1" fill-rule="nonzero"/><g clip-path="url(#ee7dd32f82)"><path fill="#000000" d="M 243.152344 143.441406 L 246.304688 143.441406 L 246.304688 149.648438 L 243.152344 149.648438 Z M 243.152344 143.441406 " fill-opacity="1" fill-rule="nonzero"/></g><path fill="#000000" d="M 240.039062 149.570312 L 243.195312 149.570312 L 243.195312 152.742188 L 240.039062 152.742188 Z M 240.039062 149.570312 " fill-opacity="1" fill-rule="nonzero"/><path fill="#000000" d="M 236.976562 152.703125 L 240.074219 152.703125 L 240.074219 155.804688 L 236.976562 155.804688 Z M 236.976562 152.703125 " fill-opacity="1" fill-rule="nonzero"/><path fill="#000000" d="M 233.875 155.804688 L 236.992188 155.804688 L 236.992188 158.960938 L 233.875 158.960938 Z M 233.875 155.804688 " fill-opacity="1" fill-rule="nonzero"/><path fill="#000000" d="M 221.492188 149.640625 L 224.59375 149.640625 L 224.59375 152.742188 L 221.492188 152.742188 Z M 221.492188 149.640625 " fill-opacity="1" fill-rule="nonzero"/><path fill="#000000" d="M 224.574219 152.742188 L 227.675781 152.742188 L 227.675781 155.839844 L 224.574219 155.839844 Z M 224.574219 152.742188 " fill-opacity="1" fill-rule="nonzero"/><g clip-path="url(#62b45a4a39)"><path fill="#000000" d="M 230.761719 158.960938 L 233.863281 158.960938 L 233.863281 162.0625 L 230.761719 162.0625 Z M 230.761719 158.960938 " fill-opacity="1" fill-rule="nonzero"/></g><path fill="#000000" d="M 224.589844 146.523438 L 224.589844 140.320312 L 227.75 140.320312 L 227.75 152.726562 L 224.589844 152.726562 Z M 224.589844 146.523438 " fill-opacity="1" fill-rule="nonzero"/><path fill="#000000" d="M 227.667969 148.074219 L 227.667969 140.320312 L 230.773438 140.320312 L 230.773438 155.828125 L 227.667969 155.828125 Z M 227.667969 148.074219 " fill-opacity="1" fill-rule="nonzero"/><path fill="#000000" d="M 233.863281 148.089844 L 233.863281 140.320312 L 236.988281 140.320312 L 236.988281 155.859375 L 233.863281 155.859375 Z M 233.863281 148.089844 " fill-opacity="1" fill-rule="nonzero"/><path fill="#000000" d="M 236.914062 146.523438 L 236.914062 140.320312 L 240.089844 140.320312 L 240.089844 152.726562 L 236.914062 152.726562 Z M 236.914062 146.523438 " fill-opacity="1" fill-rule="nonzero"/><path fill="#000000" d="M 221.464844 146.550781 L 221.464844 143.449219 L 224.777344 143.449219 L 224.777344 149.65625 L 221.464844 149.65625 Z M 221.464844 146.550781 " fill-opacity="1" fill-rule="nonzero"/><path fill="#000000" d="M 240.039062 146.542969 L 240.039062 143.445312 L 243.199219 143.445312 L 243.199219 149.640625 L 240.039062 149.640625 Z M 240.039062 146.542969 " fill-opacity="1" fill-rule="nonzero"/><path fill="#000000" d="M 230.734375 151.179688 L 230.734375 143.414062 L 233.921875 143.414062 L 233.921875 158.945312 L 230.734375 158.945312 Z M 230.734375 151.179688 " fill-opacity="1" fill-rule="nonzero"/><path fill="#000000" d="M 227.667969 157.382812 L 227.667969 155.839844 L 230.789062 155.839844 L 230.789062 158.929688 L 227.667969 158.929688 Z M 227.667969 157.382812 " fill-opacity="1" fill-rule="nonzero"/><path fill="#000000" d="M 237.027344 154.265625 L 237.027344 152.730469 L 240.058594 152.730469 L 240.058594 155.800781 L 237.027344 155.800781 Z M 237.027344 154.265625 " fill-opacity="1" fill-rule="nonzero"/><path fill="#000000" d="M 233.875 157.394531 L 233.875 155.828125 L 236.988281 155.828125 L 236.988281 158.960938 L 233.875 158.960938 Z M 233.875 157.394531 " fill-opacity="1" fill-rule="nonzero"/><g clip-path="url(#dc2cbbb079)"><path fill="#000000" d="M 230.789062 160.480469 L 230.789062 158.933594 L 233.878906 158.933594 L 233.878906 162.03125 L 230.789062 162.03125 Z M 230.789062 160.480469 " fill-opacity="1" fill-rule="nonzero"/></g><path fill="#e25757" d="M 224.589844 146.597656 L 224.589844 140.394531 L 227.75 140.394531 L 227.75 152.800781 L 224.589844 152.800781 Z M 224.589844 146.597656 " fill-opacity="1" fill-rule="nonzero"/><path fill="#e25757" d="M 227.667969 148.148438 L 227.667969 140.394531 L 230.769531 140.394531 L 230.769531 155.902344 L 227.667969 155.902344 Z M 227.667969 148.148438 " fill-opacity="1" fill-rule="nonzero"/><path fill="#e25757" d="M 233.867188 148.164062 L 233.867188 140.394531 L 236.988281 140.394531 L 236.988281 155.933594 L 233.867188 155.933594 Z M 233.867188 148.164062 " fill-opacity="1" fill-rule="nonzero"/><path fill="#e25757" d="M 236.914062 146.597656 L 236.914062 140.394531 L 240.089844 140.394531 L 240.089844 152.800781 L 236.914062 152.800781 Z M 236.914062 146.597656 " fill-opacity="1" fill-rule="nonzero"/><path fill="#e25757" d="M 221.464844 146.625 L 221.464844 143.519531 L 224.777344 143.519531 L 224.777344 149.726562 L 221.464844 149.726562 Z M 221.464844 146.625 " fill-opacity="1" fill-rule="nonzero"/><path fill="#e25757" d="M 240.039062 146.617188 L 240.039062 143.519531 L 243.199219 143.519531 L 243.199219 149.710938 L 240.039062 149.710938 Z M 240.039062 146.617188 " fill-opacity="1" fill-rule="nonzero"/><path fill="#e25757" d="M 230.734375 151.253906 L 230.734375 143.488281 L 233.921875 143.488281 L 233.921875 159.019531 L 230.734375 159.019531 Z M 230.734375 151.253906 " fill-opacity="1" fill-rule="nonzero"/><g clip-path="url(#260b18578f)"><path fill="#000000" d="M 225.980469 169.089844 L 232.1875 169.089844 L 232.1875 172.191406 L 225.980469 172.191406 Z M 225.980469 169.089844 " fill-opacity="1" fill-rule="nonzero"/></g><path fill="#000000" d="M 222.882812 172.183594 L 226 172.183594 L 226 175.339844 L 222.882812 175.339844 Z M 222.882812 172.183594 " fill-opacity="1" fill-rule="nonzero"/><g clip-path="url(#67a06b6710)"><path fill="#000000" d="M 219.742188 175.320312 L 222.898438 175.320312 L 222.898438 181.527344 L 219.742188 181.527344 Z M 219.742188 175.320312 " fill-opacity="1" fill-rule="nonzero"/></g><path fill="#000000" d="M 232.175781 172.171875 L 235.277344 172.171875 L 235.277344 175.269531 L 232.175781 175.269531 Z M 232.175781 172.171875 " fill-opacity="1" fill-rule="nonzero"/><g clip-path="url(#30542aa155)"><path fill="#000000" d="M 235.292969 169.082031 L 241.519531 169.082031 L 241.519531 172.238281 L 235.292969 172.238281 Z M 235.292969 169.082031 " fill-opacity="1" fill-rule="nonzero"/></g><path fill="#000000" d="M 241.445312 172.183594 L 244.601562 172.183594 L 244.601562 175.355469 L 241.445312 175.355469 Z M 241.445312 172.183594 " fill-opacity="1" fill-rule="nonzero"/><g clip-path="url(#0b1ced8aff)"><path fill="#000000" d="M 244.558594 175.300781 L 247.714844 175.300781 L 247.714844 181.507812 L 244.558594 181.507812 Z M 244.558594 175.300781 " fill-opacity="1" fill-rule="nonzero"/></g><path fill="#000000" d="M 241.445312 181.429688 L 244.601562 181.429688 L 244.601562 184.605469 L 241.445312 184.605469 Z M 241.445312 181.429688 " fill-opacity="1" fill-rule="nonzero"/><path fill="#000000" d="M 238.382812 184.566406 L 241.484375 184.566406 L 241.484375 187.667969 L 238.382812 187.667969 Z M 238.382812 184.566406 " fill-opacity="1" fill-rule="nonzero"/><path fill="#000000" d="M 235.28125 187.667969 L 238.402344 187.667969 L 238.402344 190.820312 L 235.28125 190.820312 Z M 235.28125 187.667969 " fill-opacity="1" fill-rule="nonzero"/><path fill="#000000" d="M 222.898438 181.503906 L 226 181.503906 L 226 184.601562 L 222.898438 184.601562 Z M 222.898438 181.503906 " fill-opacity="1" fill-rule="nonzero"/><path fill="#000000" d="M 225.980469 184.601562 L 229.082031 184.601562 L 229.082031 187.703125 L 225.980469 187.703125 Z M 225.980469 184.601562 " fill-opacity="1" fill-rule="nonzero"/><g clip-path="url(#2d3eaa1d7b)"><path fill="#000000" d="M 232.167969 190.820312 L 235.269531 190.820312 L 235.269531 193.921875 L 232.167969 193.921875 Z M 232.167969 190.820312 " fill-opacity="1" fill-rule="nonzero"/></g><path fill="#000000" d="M 225.996094 178.386719 L 225.996094 172.183594 L 229.15625 172.183594 L 229.15625 184.589844 L 225.996094 184.589844 Z M 225.996094 178.386719 " fill-opacity="1" fill-rule="nonzero"/><path fill="#000000" d="M 229.074219 179.9375 L 229.074219 172.183594 L 232.179688 172.183594 L 232.179688 187.691406 L 229.074219 187.691406 Z M 229.074219 179.9375 " fill-opacity="1" fill-rule="nonzero"/><path fill="#000000" d="M 235.273438 179.949219 L 235.273438 172.179688 L 238.394531 172.179688 L 238.394531 187.71875 L 235.273438 187.71875 Z M 235.273438 179.949219 " fill-opacity="1" fill-rule="nonzero"/><path fill="#000000" d="M 238.320312 178.386719 L 238.320312 172.183594 L 241.496094 172.183594 L 241.496094 184.589844 L 238.320312 184.589844 Z M 238.320312 178.386719 " fill-opacity="1" fill-rule="nonzero"/><path fill="#000000" d="M 222.871094 178.414062 L 222.871094 175.308594 L 226.183594 175.308594 L 226.183594 181.515625 L 222.871094 181.515625 Z M 222.871094 178.414062 " fill-opacity="1" fill-rule="nonzero"/><path fill="#000000" d="M 241.449219 178.40625 L 241.449219 175.308594 L 244.605469 175.308594 L 244.605469 181.5 L 241.449219 181.5 Z M 241.449219 178.40625 " fill-opacity="1" fill-rule="nonzero"/><path fill="#000000" d="M 232.140625 183.039062 L 232.140625 175.277344 L 235.332031 175.277344 L 235.332031 190.804688 L 232.140625 190.804688 Z M 232.140625 183.039062 " fill-opacity="1" fill-rule="nonzero"/><path fill="#000000" d="M 229.074219 189.246094 L 229.074219 187.699219 L 232.195312 187.699219 L 232.195312 190.789062 L 229.074219 190.789062 Z M 229.074219 189.246094 " fill-opacity="1" fill-rule="nonzero"/><path fill="#000000" d="M 238.433594 186.128906 L 238.433594 184.59375 L 241.464844 184.59375 L 241.464844 187.664062 L 238.433594 187.664062 Z M 238.433594 186.128906 " fill-opacity="1" fill-rule="nonzero"/><path fill="#000000" d="M 235.28125 189.253906 L 235.28125 187.6875 L 238.398438 187.6875 L 238.398438 190.820312 L 235.28125 190.820312 Z M 235.28125 189.253906 " fill-opacity="1" fill-rule="nonzero"/><g clip-path="url(#65828c77b9)"><path fill="#000000" d="M 232.195312 192.34375 L 232.195312 190.796875 L 235.285156 190.796875 L 235.285156 193.890625 L 232.195312 193.890625 Z M 232.195312 192.34375 " fill-opacity="1" fill-rule="nonzero"/></g><path fill="#e25757" d="M 225.996094 178.460938 L 225.996094 172.257812 L 229.15625 172.257812 L 229.15625 184.664062 L 225.996094 184.664062 Z M 225.996094 178.460938 " fill-opacity="1" fill-rule="nonzero"/><path fill="#e25757" d="M 229.074219 180.011719 L 229.074219 172.257812 L 232.179688 172.257812 L 232.179688 187.761719 L 229.074219 187.761719 Z M 229.074219 180.011719 " fill-opacity="1" fill-rule="nonzero"/><path fill="#e25757" d="M 235.273438 180.023438 L 235.273438 172.253906 L 238.394531 172.253906 L 238.394531 187.792969 L 235.273438 187.792969 Z M 235.273438 180.023438 " fill-opacity="1" fill-rule="nonzero"/><path fill="#e25757" d="M 238.320312 178.460938 L 238.320312 172.257812 L 241.5 172.257812 L 241.5 184.664062 L 238.320312 184.664062 Z M 238.320312 178.460938 " fill-opacity="1" fill-rule="nonzero"/><path fill="#e25757" d="M 222.871094 178.484375 L 222.871094 175.382812 L 226.183594 175.382812 L 226.183594 181.589844 L 222.871094 181.589844 Z M 222.871094 178.484375 " fill-opacity="1" fill-rule="nonzero"/><path fill="#e25757" d="M 241.445312 178.476562 L 241.445312 175.382812 L 244.605469 175.382812 L 244.605469 181.574219 L 241.445312 181.574219 Z M 241.445312 178.476562 " fill-opacity="1" fill-rule="nonzero"/><path fill="#e25757" d="M 232.140625 183.113281 L 232.140625 175.347656 L 235.328125 175.347656 L 235.328125 190.878906 L 232.140625 190.878906 Z M 232.140625 183.113281 " fill-opacity="1" fill-rule="nonzero"/><g clip-path="url(#767778ed69)"><path fill="#000000" d="M 225.511719 200.949219 L 231.71875 200.949219 L 231.71875 204.050781 L 225.511719 204.050781 Z M 225.511719 200.949219 " fill-opacity="1" fill-rule="nonzero"/></g><path fill="#000000" d="M 222.414062 204.046875 L 225.53125 204.046875 L 225.53125 207.199219 L 222.414062 207.199219 Z M 222.414062 204.046875 " fill-opacity="1" fill-rule="nonzero"/><g clip-path="url(#8acced67c9)"><path fill="#000000" d="M 219.273438 207.183594 L 222.429688 207.183594 L 222.429688 213.386719 L 219.273438 213.386719 Z M 219.273438 207.183594 " fill-opacity="1" fill-rule="nonzero"/></g><path fill="#000000" d="M 231.707031 204.03125 L 234.808594 204.03125 L 234.808594 207.132812 L 231.707031 207.132812 Z M 231.707031 204.03125 " fill-opacity="1" fill-rule="nonzero"/><g clip-path="url(#de4ccdbc66)"><path fill="#000000" d="M 234.824219 200.945312 L 241.050781 200.945312 L 241.050781 204.101562 L 234.824219 204.101562 Z M 234.824219 200.945312 " fill-opacity="1" fill-rule="nonzero"/></g><path fill="#000000" d="M 240.976562 204.046875 L 244.132812 204.046875 L 244.132812 207.21875 L 240.976562 207.21875 Z M 240.976562 204.046875 " fill-opacity="1" fill-rule="nonzero"/><g clip-path="url(#1181abb33d)"><path fill="#000000" d="M 244.089844 207.164062 L 247.242188 207.164062 L 247.242188 213.371094 L 244.089844 213.371094 Z M 244.089844 207.164062 " fill-opacity="1" fill-rule="nonzero"/></g><path fill="#000000" d="M 240.976562 213.292969 L 244.132812 213.292969 L 244.132812 216.464844 L 240.976562 216.464844 Z M 240.976562 213.292969 " fill-opacity="1" fill-rule="nonzero"/><path fill="#000000" d="M 237.914062 216.425781 L 241.011719 216.425781 L 241.011719 219.527344 L 237.914062 219.527344 Z M 237.914062 216.425781 " fill-opacity="1" fill-rule="nonzero"/><path fill="#000000" d="M 234.8125 219.527344 L 237.929688 219.527344 L 237.929688 222.683594 L 234.8125 222.683594 Z M 234.8125 219.527344 " fill-opacity="1" fill-rule="nonzero"/><path fill="#000000" d="M 222.429688 213.363281 L 225.53125 213.363281 L 225.53125 216.464844 L 222.429688 216.464844 Z M 222.429688 213.363281 " fill-opacity="1" fill-rule="nonzero"/><path fill="#000000" d="M 225.511719 216.464844 L 228.613281 216.464844 L 228.613281 219.566406 L 225.511719 219.566406 Z M 225.511719 216.464844 " fill-opacity="1" fill-rule="nonzero"/><g clip-path="url(#4c2f323828)"><path fill="#000000" d="M 231.699219 222.683594 L 234.800781 222.683594 L 234.800781 225.785156 L 231.699219 225.785156 Z M 231.699219 222.683594 " fill-opacity="1" fill-rule="nonzero"/></g><path fill="#000000" d="M 225.527344 210.246094 L 225.527344 204.042969 L 228.6875 204.042969 L 228.6875 216.453125 L 225.527344 216.453125 Z M 225.527344 210.246094 " fill-opacity="1" fill-rule="nonzero"/><path fill="#000000" d="M 228.605469 211.796875 L 228.605469 204.042969 L 231.710938 204.042969 L 231.710938 219.550781 L 228.605469 219.550781 Z M 228.605469 211.796875 " fill-opacity="1" fill-rule="nonzero"/><path fill="#000000" d="M 234.804688 211.8125 L 234.804688 204.042969 L 237.925781 204.042969 L 237.925781 219.582031 L 234.804688 219.582031 Z M 234.804688 211.8125 " fill-opacity="1" fill-rule="nonzero"/><path fill="#000000" d="M 237.851562 210.246094 L 237.851562 204.042969 L 241.027344 204.042969 L 241.027344 216.453125 L 237.851562 216.453125 Z M 237.851562 210.246094 " fill-opacity="1" fill-rule="nonzero"/><path fill="#000000" d="M 222.402344 210.273438 L 222.402344 207.171875 L 225.714844 207.171875 L 225.714844 213.378906 L 222.402344 213.378906 Z M 222.402344 210.273438 " fill-opacity="1" fill-rule="nonzero"/><path fill="#000000" d="M 240.976562 210.265625 L 240.976562 207.171875 L 244.136719 207.171875 L 244.136719 213.363281 L 240.976562 213.363281 Z M 240.976562 210.265625 " fill-opacity="1" fill-rule="nonzero"/><path fill="#000000" d="M 231.671875 214.902344 L 231.671875 207.136719 L 234.863281 207.136719 L 234.863281 222.667969 L 231.671875 222.667969 Z M 231.671875 214.902344 " fill-opacity="1" fill-rule="nonzero"/><path fill="#000000" d="M 228.605469 221.105469 L 228.605469 219.5625 L 231.726562 219.5625 L 231.726562 222.652344 L 228.605469 222.652344 Z M 228.605469 221.105469 " fill-opacity="1" fill-rule="nonzero"/><path fill="#000000" d="M 237.964844 217.988281 L 237.964844 216.457031 L 240.996094 216.457031 L 240.996094 219.523438 L 237.964844 219.523438 Z M 237.964844 217.988281 " fill-opacity="1" fill-rule="nonzero"/><path fill="#000000" d="M 234.8125 221.117188 L 234.8125 219.550781 L 237.929688 219.550781 L 237.929688 222.683594 L 234.8125 222.683594 Z M 234.8125 221.117188 " fill-opacity="1" fill-rule="nonzero"/><g clip-path="url(#1d7a68c968)"><path fill="#000000" d="M 231.726562 224.203125 L 231.726562 222.65625 L 234.816406 222.65625 L 234.816406 225.753906 L 231.726562 225.753906 Z M 231.726562 224.203125 " fill-opacity="1" fill-rule="nonzero"/></g><path fill="#e25757" d="M 225.527344 210.320312 L 225.527344 204.117188 L 228.6875 204.117188 L 228.6875 216.523438 L 225.527344 216.523438 Z M 225.527344 210.320312 " fill-opacity="1" fill-rule="nonzero"/><path fill="#e25757" d="M 228.605469 211.871094 L 228.605469 204.117188 L 231.710938 204.117188 L 231.710938 219.625 L 228.605469 219.625 Z M 228.605469 211.871094 " fill-opacity="1" fill-rule="nonzero"/><path fill="#e25757" d="M 234.804688 211.886719 L 234.804688 204.117188 L 237.925781 204.117188 L 237.925781 219.65625 L 234.804688 219.65625 Z M 234.804688 211.886719 " fill-opacity="1" fill-rule="nonzero"/><path fill="#e25757" d="M 237.851562 210.320312 L 237.851562 204.117188 L 241.03125 204.117188 L 241.03125 216.523438 L 237.851562 216.523438 Z M 237.851562 210.320312 " fill-opacity="1" fill-rule="nonzero"/><path fill="#e25757" d="M 222.402344 210.347656 L 222.402344 207.242188 L 225.714844 207.242188 L 225.714844 213.449219 L 222.402344 213.449219 Z M 222.402344 210.347656 " fill-opacity="1" fill-rule="nonzero"/><path fill="#e25757" d="M 240.976562 210.339844 L 240.976562 207.242188 L 244.136719 207.242188 L 244.136719 213.4375 L 240.976562 213.4375 Z M 240.976562 210.339844 " fill-opacity="1" fill-rule="nonzero"/><path fill="#e25757" d="M 231.671875 214.976562 L 231.671875 207.210938 L 234.859375 207.210938 L 234.859375 222.742188 L 231.671875 222.742188 Z M 231.671875 214.976562 " fill-opacity="1" fill-rule="nonzero"/><g clip-path="url(#762c489178)"><g clip-path="url(#069489f29f)"><path fill="#ffffff" d="M 99.007812 241.574219 L 93.59375 241.574219 L 93.59375 188.792969 L 99.007812 188.792969 Z M 99.007812 241.574219 " fill-opacity="1" fill-rule="nonzero"/></g></g><g clip-path="url(#05e4110927)"><g clip-path="url(#81907769fa)"><path stroke-linecap="butt" transform="matrix(-0.748574, 0, 0, -0.748574, 99.006376, 241.527506)" fill="none" stroke-linejoin="miter" d="M 1.996673 0.000216246 L 5.221554 0.000216246 C 6.322606 0.000216246 7.220146 0.892538 7.220146 1.998808 L 7.220146 68.380223 C 7.220146 69.481275 6.322606 70.373597 5.221554 70.373597 L 1.996673 70.373597 C 0.895621 70.373597 -0.00191859 69.481275 -0.00191859 68.380223 L -0.00191859 1.998808 C -0.00191859 0.892538 0.895621 0.000216246 1.996673 0.000216246 Z M 1.996673 0.000216246 " stroke="#000000" stroke-width="4" stroke-opacity="1" stroke-miterlimit="4"/></g></g><g clip-path="url(#947164bdee)"><path fill="#ffdc14" d="M 120.976562 205.753906 L 98.949219 168.71875 C 98.433594 167.851562 97.46875 167.3125 96.4375 167.3125 C 95.402344 167.3125 94.4375 167.851562 93.921875 168.71875 L 71.898438 205.753906 C 71.378906 206.621094 71.378906 207.703125 71.898438 208.570312 C 72.414062 209.441406 73.378906 209.980469 74.410156 209.980469 L 118.460938 209.980469 C 119.496094 209.980469 120.457031 209.441406 120.976562 208.570312 C 121.492188 207.703125 121.492188 206.621094 120.976562 205.753906 " fill-opacity="1" fill-rule="nonzero"/></g><path fill="#000000" d="M 74.75 206.972656 L 118.125 206.972656 L 96.4375 170.507812 Z M 118.460938 208.371094 L 74.410156 208.371094 C 73.960938 208.371094 73.558594 208.144531 73.332031 207.765625 C 73.109375 207.386719 73.109375 206.9375 73.332031 206.558594 L 95.359375 169.527344 C 95.582031 169.148438 95.984375 168.921875 96.4375 168.921875 C 96.886719 168.921875 97.289062 169.148438 97.515625 169.527344 L 119.539062 206.558594 C 119.765625 206.9375 119.765625 207.386719 119.539062 207.765625 C 119.3125 208.144531 118.910156 208.371094 118.460938 208.371094 " fill-opacity="1" fill-rule="nonzero"/><path fill="#000000" d="M 101.03125 191.164062 C 101.03125 192.132812 100.214844 192.746094 99.214844 192.746094 L 98.925781 192.746094 C 97.960938 192.746094 97.167969 191.976562 97.167969 191.039062 C 97.167969 189.730469 101.03125 189.179688 101.03125 191.164062 Z M 97.066406 194.441406 L 95.804688 194.441406 C 95.675781 194.441406 95.59375 194.304688 95.660156 194.195312 L 95.976562 193.667969 L 96.289062 193.136719 C 96.355469 193.027344 96.515625 193.027344 96.582031 193.136719 L 96.898438 193.667969 L 97.210938 194.195312 C 97.277344 194.304688 97.195312 194.441406 97.066406 194.441406 Z M 93.945312 192.746094 L 93.660156 192.746094 C 92.660156 192.746094 91.839844 192.132812 91.839844 191.164062 C 91.839844 189.179688 95.703125 189.730469 95.703125 191.039062 C 95.703125 191.976562 94.914062 192.746094 93.945312 192.746094 Z M 96.4375 184.191406 C 92.742188 184.191406 89.746094 186.128906 89.746094 191.210938 C 89.746094 193.667969 91.148438 194.585938 93.222656 194.921875 L 93.222656 196.144531 C 93.222656 196.496094 93.515625 196.78125 93.878906 196.78125 L 94.710938 196.78125 C 95.074219 196.78125 95.367188 196.496094 95.367188 196.144531 C 95.367188 196.496094 95.660156 196.78125 96.019531 196.78125 L 96.851562 196.78125 C 97.214844 196.78125 97.507812 196.496094 97.507812 196.144531 C 97.507812 196.496094 97.800781 196.78125 98.160156 196.78125 L 98.992188 196.78125 C 99.355469 196.78125 99.648438 196.496094 99.648438 196.144531 L 99.648438 194.921875 C 101.722656 194.585938 103.128906 193.667969 103.128906 191.210938 C 103.128906 186.128906 100.132812 184.191406 96.4375 184.191406 " fill-opacity="1" fill-rule="nonzero"/><path fill="#000000" d="M 103.699219 200.625 C 103.304688 200.445312 102.867188 200.421875 102.457031 200.5625 C 102.117188 200.679688 101.835938 200.894531 101.644531 201.183594 L 92.28125 196.863281 C 92.386719 196.535156 92.382812 196.1875 92.261719 195.859375 C 92.117188 195.460938 91.820312 195.144531 91.429688 194.964844 C 90.621094 194.589844 89.652344 194.925781 89.265625 195.710938 C 89.109375 196.035156 89.070312 196.394531 89.148438 196.734375 C 88.828125 196.886719 88.566406 197.144531 88.40625 197.464844 C 88.222656 197.847656 88.199219 198.273438 88.34375 198.671875 C 88.488281 199.066406 88.785156 199.382812 89.175781 199.566406 C 89.566406 199.746094 90.007812 199.769531 90.417969 199.625 C 90.753906 199.511719 91.039062 199.292969 91.230469 199.003906 L 100.59375 203.328125 C 100.351562 204.066406 100.703125 204.882812 101.445312 205.226562 C 101.667969 205.328125 101.90625 205.378906 102.136719 205.378906 C 102.746094 205.378906 103.328125 205.046875 103.605469 204.480469 C 103.765625 204.15625 103.804688 203.796875 103.722656 203.457031 C 104.046875 203.300781 104.308594 203.046875 104.464844 202.722656 C 104.851562 201.9375 104.503906 200.996094 103.699219 200.625 " fill-opacity="1" fill-rule="nonzero"/><path fill="#000000" d="M 104.464844 197.464844 C 104.308594 197.144531 104.046875 196.886719 103.722656 196.734375 C 103.804688 196.394531 103.765625 196.035156 103.605469 195.710938 C 103.222656 194.925781 102.253906 194.589844 101.445312 194.964844 C 101.054688 195.144531 100.757812 195.460938 100.613281 195.859375 C 100.492188 196.1875 100.488281 196.535156 100.59375 196.863281 L 91.230469 201.183594 C 91.039062 200.894531 90.753906 200.679688 90.417969 200.5625 C 90.007812 200.421875 89.566406 200.445312 89.175781 200.625 C 88.785156 200.804688 88.488281 201.121094 88.34375 201.519531 C 88.199219 201.914062 88.222656 202.34375 88.40625 202.722656 C 88.566406 203.046875 88.828125 203.300781 89.148438 203.457031 C 89.070312 203.796875 89.109375 204.15625 89.265625 204.480469 C 89.542969 205.046875 90.128906 205.378906 90.734375 205.378906 C 90.96875 205.378906 91.203125 205.328125 91.429688 205.226562 C 92.167969 204.882812 92.519531 204.066406 92.277344 203.328125 L 101.644531 199.003906 C 101.835938 199.292969 102.117188 199.511719 102.457031 199.625 C 102.867188 199.769531 103.304688 199.746094 103.699219 199.566406 C 104.503906 199.191406 104.851562 198.25 104.464844 197.464844 " fill-opacity="1" fill-rule="nonzero"/><g clip-path="url(#33b0372006)"><path fill="#000000" d="M 224.574219 10.253906 L 230.78125 10.253906 L 230.78125 13.351562 L 224.574219 13.351562 Z M 224.574219 10.253906 " fill-opacity="1" fill-rule="nonzero"/></g><path fill="#000000" d="M 221.472656 13.347656 L 224.59375 13.347656 L 224.59375 16.503906 L 221.472656 16.503906 Z M 221.472656 13.347656 " fill-opacity="1" fill-rule="nonzero"/><g clip-path="url(#8fe2bfec5d)"><path fill="#000000" d="M 218.335938 16.484375 L 221.492188 16.484375 L 221.492188 22.691406 L 218.335938 22.691406 Z M 218.335938 16.484375 " fill-opacity="1" fill-rule="nonzero"/></g><path fill="#000000" d="M 230.769531 13.335938 L 233.871094 13.335938 L 233.871094 16.433594 L 230.769531 16.433594 Z M 230.769531 13.335938 " fill-opacity="1" fill-rule="nonzero"/><g clip-path="url(#214b638f51)"><path fill="#000000" d="M 233.886719 10.246094 L 240.113281 10.246094 L 240.113281 13.402344 L 233.886719 13.402344 Z M 233.886719 10.246094 " fill-opacity="1" fill-rule="nonzero"/></g><path fill="#000000" d="M 240.039062 13.347656 L 243.195312 13.347656 L 243.195312 16.519531 L 240.039062 16.519531 Z M 240.039062 13.347656 " fill-opacity="1" fill-rule="nonzero"/><g clip-path="url(#d57c873626)"><path fill="#000000" d="M 243.152344 16.464844 L 246.304688 16.464844 L 246.304688 22.671875 L 243.152344 22.671875 Z M 243.152344 16.464844 " fill-opacity="1" fill-rule="nonzero"/></g><path fill="#000000" d="M 240.039062 22.59375 L 243.195312 22.59375 L 243.195312 25.765625 L 240.039062 25.765625 Z M 240.039062 22.59375 " fill-opacity="1" fill-rule="nonzero"/><path fill="#000000" d="M 236.976562 25.730469 L 240.074219 25.730469 L 240.074219 28.828125 L 236.976562 28.828125 Z M 236.976562 25.730469 " fill-opacity="1" fill-rule="nonzero"/><path fill="#000000" d="M 233.875 28.828125 L 236.992188 28.828125 L 236.992188 31.984375 L 233.875 31.984375 Z M 233.875 28.828125 " fill-opacity="1" fill-rule="nonzero"/><path fill="#000000" d="M 221.492188 22.667969 L 224.59375 22.667969 L 224.59375 25.765625 L 221.492188 25.765625 Z M 221.492188 22.667969 " fill-opacity="1" fill-rule="nonzero"/><path fill="#000000" d="M 224.574219 25.765625 L 227.675781 25.765625 L 227.675781 28.867188 L 224.574219 28.867188 Z M 224.574219 25.765625 " fill-opacity="1" fill-rule="nonzero"/><g clip-path="url(#d235ed9c53)"><path fill="#000000" d="M 230.761719 31.984375 L 233.863281 31.984375 L 233.863281 35.085938 L 230.761719 35.085938 Z M 230.761719 31.984375 " fill-opacity="1" fill-rule="nonzero"/></g><path fill="#000000" d="M 224.589844 19.550781 L 224.589844 13.347656 L 227.75 13.347656 L 227.75 25.753906 L 224.589844 25.753906 Z M 224.589844 19.550781 " fill-opacity="1" fill-rule="nonzero"/><path fill="#000000" d="M 227.667969 21.101562 L 227.667969 13.347656 L 230.773438 13.347656 L 230.773438 28.851562 L 227.667969 28.851562 Z M 227.667969 21.101562 " fill-opacity="1" fill-rule="nonzero"/><path fill="#000000" d="M 233.863281 21.113281 L 233.863281 13.34375 L 236.988281 13.34375 L 236.988281 28.882812 L 233.863281 28.882812 Z M 233.863281 21.113281 " fill-opacity="1" fill-rule="nonzero"/><path fill="#000000" d="M 236.914062 19.550781 L 236.914062 13.347656 L 240.089844 13.347656 L 240.089844 25.753906 L 236.914062 25.753906 Z M 236.914062 19.550781 " fill-opacity="1" fill-rule="nonzero"/><path fill="#000000" d="M 221.464844 19.578125 L 221.464844 16.472656 L 224.777344 16.472656 L 224.777344 22.679688 L 221.464844 22.679688 Z M 221.464844 19.578125 " fill-opacity="1" fill-rule="nonzero"/><path fill="#000000" d="M 240.039062 19.566406 L 240.039062 16.472656 L 243.199219 16.472656 L 243.199219 22.664062 L 240.039062 22.664062 Z M 240.039062 19.566406 " fill-opacity="1" fill-rule="nonzero"/><path fill="#000000" d="M 230.734375 24.203125 L 230.734375 16.4375 L 233.921875 16.4375 L 233.921875 31.96875 L 230.734375 31.96875 Z M 230.734375 24.203125 " fill-opacity="1" fill-rule="nonzero"/><path fill="#000000" d="M 227.667969 30.410156 L 227.667969 28.863281 L 230.789062 28.863281 L 230.789062 31.953125 L 227.667969 31.953125 Z M 227.667969 30.410156 " fill-opacity="1" fill-rule="nonzero"/><path fill="#000000" d="M 237.027344 27.292969 L 237.027344 25.757812 L 240.058594 25.757812 L 240.058594 28.828125 L 237.027344 28.828125 Z M 237.027344 27.292969 " fill-opacity="1" fill-rule="nonzero"/><path fill="#000000" d="M 233.875 30.417969 L 233.875 28.851562 L 236.988281 28.851562 L 236.988281 31.984375 L 233.875 31.984375 Z M 233.875 30.417969 " fill-opacity="1" fill-rule="nonzero"/><g clip-path="url(#4c45b95f59)"><path fill="#000000" d="M 230.789062 33.507812 L 230.789062 31.957031 L 233.878906 31.957031 L 233.878906 35.054688 L 230.789062 35.054688 Z M 230.789062 33.507812 " fill-opacity="1" fill-rule="nonzero"/></g><path fill="#e25757" d="M 224.589844 19.625 L 224.589844 13.417969 L 227.75 13.417969 L 227.75 25.828125 L 224.589844 25.828125 Z M 224.589844 19.625 " fill-opacity="1" fill-rule="nonzero"/><path fill="#e25757" d="M 227.667969 21.171875 L 227.667969 13.417969 L 230.769531 13.417969 L 230.769531 28.925781 L 227.667969 28.925781 Z M 227.667969 21.171875 " fill-opacity="1" fill-rule="nonzero"/><path fill="#e25757" d="M 233.867188 21.1875 L 233.867188 13.417969 L 236.988281 13.417969 L 236.988281 28.957031 L 233.867188 28.957031 Z M 233.867188 21.1875 " fill-opacity="1" fill-rule="nonzero"/><path fill="#e25757" d="M 236.914062 19.625 L 236.914062 13.417969 L 240.089844 13.417969 L 240.089844 25.828125 L 236.914062 25.828125 Z M 236.914062 19.625 " fill-opacity="1" fill-rule="nonzero"/><path fill="#e25757" d="M 221.464844 19.648438 L 221.464844 16.542969 L 224.777344 16.542969 L 224.777344 22.75 L 221.464844 22.75 Z M 221.464844 19.648438 " fill-opacity="1" fill-rule="nonzero"/><path fill="#e25757" d="M 240.039062 19.640625 L 240.039062 16.546875 L 243.199219 16.546875 L 243.199219 22.738281 L 240.039062 22.738281 Z M 240.039062 19.640625 " fill-opacity="1" fill-rule="nonzero"/><path fill="#e25757" d="M 230.734375 24.277344 L 230.734375 16.511719 L 233.921875 16.511719 L 233.921875 32.042969 L 230.734375 32.042969 Z M 230.734375 24.277344 " fill-opacity="1" fill-rule="nonzero"/></svg>